<?xml version="1.0" encoding="UTF-8" standalone="no"?>
<!-- Created with Inkscape (http://www.inkscape.org/) -->

<svg
   xmlns:dc="http://purl.org/dc/elements/1.1/"
   xmlns:cc="http://creativecommons.org/ns#"
   xmlns:rdf="http://www.w3.org/1999/02/22-rdf-syntax-ns#"
   xmlns:svg="http://www.w3.org/2000/svg"
   xmlns="http://www.w3.org/2000/svg"
   xmlns:sodipodi="http://sodipodi.sourceforge.net/DTD/sodipodi-0.dtd"
   xmlns:inkscape="http://www.inkscape.org/namespaces/inkscape"
   width="960"
   height="700"
   viewBox="0 0 254 185.20834"
   version="1.1"
   id="svg8"
   inkscape:version="0.92.5 (2060ec1f9f, 2020-04-08)"
   sodipodi:docname="bg2.src.svg"
   inkscape:export-filename="/media/falk/Daten/Projekte/_slides/assets/bg2.png"
   inkscape:export-xdpi="300"
   inkscape:export-ydpi="300">
  <defs
     id="defs2" />
  <sodipodi:namedview
     id="base"
     pagecolor="#ffffff"
     bordercolor="#666666"
     borderopacity="1.0"
     inkscape:pageopacity="0.0"
     inkscape:pageshadow="2"
     inkscape:zoom="0.7"
     inkscape:cx="174.84898"
     inkscape:cy="351.00804"
     inkscape:document-units="mm"
     inkscape:current-layer="layer1"
     showgrid="false"
     units="px"
     inkscape:window-width="1920"
     inkscape:window-height="1009"
     inkscape:window-x="0"
     inkscape:window-y="0"
     inkscape:window-maximized="1" />
  <metadata
     id="metadata5">
    <rdf:RDF>
      <cc:Work
         rdf:about="">
        <dc:format>image/svg+xml</dc:format>
        <dc:type
           rdf:resource="http://purl.org/dc/dcmitype/StillImage" />
        <dc:title />
      </cc:Work>
    </rdf:RDF>
  </metadata>
  <g
     inkscape:label="Ebene 1"
     inkscape:groupmode="layer"
     id="layer1"
     transform="translate(0,-111.79165)">
    <rect
       style="opacity:1;fill:#0f000a;fill-opacity:1;stroke:none;stroke-width:0.16249938;stroke-linecap:round;stroke-linejoin:round;stroke-miterlimit:4;stroke-dasharray:none;stroke-dashoffset:0;stroke-opacity:1"
       id="rect815"
       width="258.53571"
       height="192.76785"
       x="-1.5118903"
       y="109.52379" />
    <g
       style="fill:none"
       id="g847"
       transform="matrix(0.26458333,0,0,0.26458333,159.74315,250.24816)">
      <path
         id="path836"
         d="m 240.092,60.7881 -0.917,-1.5153 -0.258,-0.8831 -0.342,-1.0738 -0.921,-2.7127 -1.015,-2.6817 -1.108,-2.6424 -1.201,-2.6027 -0.306,-0.6357 -0.091,-0.1873 -0.089,-0.1872 -0.089,-0.1873 -0.09,-0.1872 -1.625,-3.448 -0.545,-1.2009 -0.506,-1.2181 -0.469,-1.2335 -0.432,-1.2473 -0.367,-1.1184 -0.437,-1.45 -0.366,-1.4706 -0.293,-1.486 -0.219,-1.4999 -0.072,-0.5927 -0.144,-1.5891 -0.046,-1.5944 0.051,-1.596 0.151,-1.5874 0.033,-0.2698 0.264,-1.644 0.377,-1.6219 0.488,-1.5908 0.63,-1.6321 0.725,-1.5599 0.799,-1.4312 0.897,-1.3692 1.046,-1.3658 1.155,-1.30573 1.192,-1.15443 1.276,-1.06005 1.399,-0.98952 1.467,-0.88139 1.486,-0.73704 1.538,-0.62013 1.601,-0.50169 1.665,-0.38142 1.669,-0.24224 1.686,-0.10649 1.685,0.03096 1.667,0.16491 1.645,0.29721 1.617,0.42779 1.579,0.55493 0.292,0.11681 1.407,0.61498 1.362,0.7096 1.311,0.79881 1.254,0.88482 0.828,0.62702 1.052,0.8333 1.015,0.87958 0.974,0.92261 0.935,0.9655 1.311,1.419 0.747,0.8247 0.73,0.8418 0.713,0.8573 0.693,0.871 2.346,3.0134 0.251,0.323 0.251,0.3247 0.249,0.3264 0.248,0.3247 1.169,1.5376 1.253,1.6338 1.269,1.6201 1.287,1.608 1.337,1.6373 0.878,1.0583 0.848,1.0085 0.854,1.0015 0.863,0.9965 0.964,1.1081 0.901,1.048 0.89,1.0583 0.88,1.0669 0.868,1.0754 1.264,1.6115 1.24,1.6304 1.213,1.6493 1.188,1.6698 1.066,1.5239 0.26,0.3728 0.259,0.3729 0.26,0.3744 0.256,0.3746 2.157,3.1474 0.614,0.8795 0.627,0.8677 0.641,0.859 0.654,0.8487 1.225,1.5633 0.859,1.0566 0.897,1.0256 0.931,0.9931 0.967,0.9603 1.081,1.036 0.964,0.8761 1.008,0.823 1.05,0.7679 1.089,0.7113 1.364,0.8401 1.126,0.6288 1.173,0.5291 1.215,0.4295 1.245,0.3247 1.058,0.2285 1.445,0.213 1.461,0.0224 1.449,-0.1684 1.416,-0.3574 0.253,-0.0807 1.472,-0.6047 1.362,-0.8246 1.22,-1.0257 1.048,-1.1992 0.837,-1.3263 0.629,-1.438 0.402,-1.5152 0.168,-1.56 0.024,-0.816 -0.024,-1.292 -0.153,-1.285 -0.282,-1.261 -0.407,-1.2284 -1.496,-3.8603 -0.062,-0.1564 -1.28,-3.2264 -0.567,-1.5445 -0.486,-1.572 -0.402,-1.5959 -0.32,-1.6184 -0.247,-1.7403 -0.15,-1.7489 -0.051,-1.7541 0.045,-1.7541 0.134,-1.6476 0.218,-1.6373 0.304,-1.6235 0.405,-1.6647 0.502,-1.6836 0.569,-1.5995 0.652,-1.5668 0.739,-1.5427 0.818,-1.5033 0.89,-1.4517 0.964,-1.4019 1.037,-1.3538 1.11,-1.3005 1.174,-1.23874 1.235,-1.17851 1.314,-1.12527 1.35,-1.04457 1.383,-0.96035 1.43,-0.88819 1.472,-0.81437 0.653,-0.34013 1.227,-0.59958 1.257,-0.53265 1.284,-0.46727 1.305,-0.400267 1.543,-0.42779 1.208,-0.286886 L 353.82,0.0945364 355.059,0 l 1.24,0.00172033 1.512,0.06185007 1.361,0.1460646 1.33,0.323013 1.276,0.496442 1.198,0.66142 1.513,1.18032 1.27,1.43967 0.981,1.64759 0.661,1.80217 0.292,1.10462 0.191,0.82125 0.137,0.83317 0.085,0.8384 0.03,0.8436 0.004,0.9534 0.16,2.0411 0.453,1.9962 0.737,1.9088 1.007,1.7815 0.349,0.5223 0.579,0.7902 0.651,0.7336 0.713,0.6701 0.773,0.603 1.706,1.5067 1.349,1.8331 0.931,2.077 0.469,2.2283 0.111,1.1029 0.03,0.3231 0.02,0.3229 0.012,0.3247 0.005,0.323 0.012,5.9666 v 0.1908 0.2524 l -0.01,6.0921 v 0.2938 l -0.002,0.2938 v 0.2937 l -10e-4,0.2938 -0.031,5.1677 -0.004,0.5567 -10e-4,0.5566 v 0.5567 0.5565 l 0.012,5.2812 v 0.2371 l -0.004,0.2371 -0.005,0.2371 -0.007,0.237 -0.118,3.5271 -0.131,1.3985 -0.294,1.3727 -0.455,1.3297 -0.608,1.2644 -1.026,1.5479 -1.254,1.3675 -1.453,1.1545 -1.615,0.9158 -0.818,0.3814 -0.885,0.378 -0.905,0.3194 -0.926,0.2595 -0.94,0.1976 -4.146,0.7319 -0.345,0.0738 -0.338,0.0979 -0.332,0.122 -0.323,0.1443 -3.025,1.4896 -0.76,0.6115 -0.426,0.8779 -0.008,0.9741 0.407,0.8865 0.386,0.3935 0.471,0.2869 0.528,0.1614 0.549,0.0293 4.512,-0.3351 0.421,-0.0223 0.422,-0.0051 0.421,0.0102 0.423,0.0275 2.017,0.1735 1.807,0.3334 1.71,0.6751 1.548,0.9913 1.329,1.2696 0.736,0.9741 0.604,1.0617 0.466,1.1305 0.316,1.1803 0.287,1.4396 0.209,1.3693 0.083,1.3812 -0.045,1.383 -0.17,1.3745 -0.127,0.7473 -0.354,1.5449 -0.524,1.496 -0.685,1.429 -0.839,1.346 -1.068,1.336 -1.22,1.199 -1.354,1.047 -1.469,0.876 -0.194,0.099 -1.338,0.612 -1.393,0.479 -1.433,0.344 -1.459,0.201 -1.62,0.144 -1.077,0.072 -1.081,0.021 -1.079,-0.029 -1.075,-0.078 -3.527,-0.336 -0.574,-0.052 -0.574,-0.041 -0.575,-0.033 -0.576,-0.024 -3.132,-0.105 -1.271,0.007 -1.268,0.102 -1.258,0.197 -1.237,0.294 -1.157,0.321 -1.382,0.475 -1.311,0.639 -1.223,0.795 -1.118,0.938 -1.179,1.295 -0.976,1.454 -0.752,1.582 -0.515,1.677 -0.234,1.409 -0.064,1.424 0.105,1.422 0.275,1.399 0.134,0.517 0.502,1.539 0.692,1.464 0.868,1.366 1.034,1.247 1.122,1.058 1.24,0.918 1.342,0.763 1.424,0.597 2.854,1.004 0.312,0.108 0.311,0.103 0.315,0.098 0.314,0.095 3.405,1.001 1.242,0.409 1.215,0.488 1.182,0.565 1.142,0.639 1.017,0.614 1.2,0.805 1.113,0.919 1.017,1.028 0.91,1.122 0.743,1.015 0.666,1.046 0.529,1.122 0.382,1.182 0.227,1.22 0.07,0.568 0.038,1.609 -0.27,1.585 -0.572,1.505 -0.849,1.366 -0.969,1.062 -1.137,0.879 -1.271,0.672 -1.368,0.442 -3.754,0.865 -0.759,0.181 -2.785,0.833 -2.675,1.137 -2.532,1.428 -2.409,1.739 -0.355,0.293 -0.303,0.258 -0.297,0.263 -0.294,0.268 -2.252,2.103 -1.093,0.893 -1.199,0.746 -1.287,0.582 -1.35,0.413 -1.682,0.259 -1.703,-0.005 -1.68,-0.272 -1.616,-0.529 -3.088,-1.285 -6.092,-2.52 -0.183,-0.076 -0.244,-0.099 -1.88,-0.749 -2.075,-0.923 -1.998,-1.079 -1.911,-1.23 -1.809,-1.373 -0.55,-0.45 -0.575,-0.491 -0.557,-0.512 -0.536,-0.533 -0.517,-0.553 -2.003,-2.223 -0.785,-0.768 -0.876,-0.663 -0.956,-0.545 -1.015,-0.419 -1.154,-0.393 -1.364,-0.297 -1.395,0.018 -1.356,0.334 -1.245,0.63 -1.172,1.007 -0.885,1.266 -0.541,1.448 -0.16,1.579 0.179,1.402 0.469,1.289 0.735,1.158 0.971,0.969 1.556,1.25 0.748,0.548 0.79,0.48 0.831,0.408 0.863,0.336 4.431,1.499 0.226,0.078 0.303,0.106 5.398,1.931 0.422,0.148 0.423,0.144 0.424,0.143 0.426,0.136 4.055,1.286 0.8,0.28 0.784,0.33 0.763,0.377 0.737,0.42 0.829,0.509 1.588,1.173 1.359,1.43 1.091,1.646 0.788,1.807 0.352,1.297 0.196,1.328 0.038,1.342 -0.122,1.336 -0.227,1.509 -0.238,1.269 -0.334,1.251 -0.421,1.222 -0.512,1.187 -0.634,1.338 -0.625,1.239 -0.685,1.204 -0.748,1.17 -0.802,1.13 -0.777,1.036 -0.853,1.1 -0.892,1.068 -0.926,1.04 -0.962,1.005 -0.447,0.45 -1.233,1.197 -1.282,1.145 -1.328,1.091 -1.373,1.034 -1.402,0.971 -1.441,0.912 -1.476,0.854 -1.51,0.792 -1.032,0.515 -1.029,0.5 -1.04,0.479 -1.05,0.457 -1.058,0.437 -3.652,1.46 -0.299,0.118 -0.299,0.119 -0.299,0.119 -0.301,0.116 -5.348,2.089 -0.225,0.088 -0.225,0.088 -0.225,0.086 -0.225,0.087 -4.556,1.759 -0.701,0.27 -0.703,0.268 -0.703,0.266 -0.702,0.263 -4.379,1.638 -0.325,0.12 -0.323,0.122 -0.325,0.118 -0.324,0.121 -4.435,1.632 -0.68,0.252 -0.68,0.255 -0.679,0.259 -0.677,0.261 -2.819,1.098 -1.11,0.443 -1.101,0.464 -1.094,0.481 -1.086,0.5 -1.741,0.821 -1.142,0.562 -1.125,0.6 -1.103,0.635 -1.083,0.67 -1.185,0.761 -1.194,0.815 -1.148,0.877 -1.097,0.94 -1.045,0.998 -0.505,0.509 -1.084,1.18 -0.995,1.256 -0.898,1.328 -0.798,1.39 -0.762,1.61 -0.627,1.668 -0.488,1.714 -0.349,1.773 -0.187,1.584 -0.072,1.572 0.041,1.572 0.154,1.565 0.169,1.237 0.184,1.189 0.232,1.181 0.276,1.169 0.325,1.158 1.048,3.486 0.115,0.389 0.112,0.388 0.108,0.388 0.106,0.39 0.907,3.397 0.292,1.231 0.22,1.246 0.148,1.256 0.076,1.261 0.043,1.405 -0.024,1.417 -0.162,1.409 -0.295,1.385 -0.426,1.352 -0.339,0.916 -0.575,1.293 -0.736,1.208 -0.885,1.105 -1.018,0.982 -0.552,0.468 -1.177,0.843 -1.298,0.639 -1.385,0.421 -1.521,0.196 -1.64,-0.062 -1.519,-0.35 -1.428,-0.622 -1.288,-0.875 -1.033,-1.011 -0.847,-1.172 -0.634,-1.301 -0.402,-1.388 -0.221,-1.113 -0.17,-1.156 -0.052,-1.167 0.064,-1.168 0.182,-1.155 0.758,-3.616 0.077,-0.385 0.074,-0.386 0.067,-0.387 0.062,-0.388 0.359,-2.319 0.216,-1.811 0.088,-1.823 -0.042,-1.825 -0.17,-1.817 -0.245,-1.533 -0.335,-1.513 -0.426,-1.493 -0.514,-1.464 -0.407,-1.053 -0.488,-1.199 -0.531,-1.182 -0.576,-1.16 -0.616,-1.139 -0.581,-1.029 -0.778,-1.328 -0.816,-1.304 -0.858,-1.278 -0.893,-1.253 -0.318,-0.432 -0.981,-1.284 -1.024,-1.251 -1.065,-1.212 -1.108,-1.177 -0.155,-0.158 -1.204,-1.189 -1.249,-1.143 -1.292,-1.092 -1.335,-1.043 -1.398,-1.009 -1.436,-0.951 -1.474,-0.897 -1.535,-0.851 -1.51,-0.766 -1.51,-0.696 -1.534,-0.639 -1.558,-0.582 -0.236,-0.083 -1.549,-0.517 -1.567,-0.462 -1.581,-0.405 -1.594,-0.352 -0.515,-0.103 -1.5,-0.274 -1.51,-0.216 -1.516,-0.158 -1.522,-0.1 -0.917,-0.043 -1.431,-0.032 -1.431,0.036 -1.43,0.103 -1.422,0.17 -1.053,0.151 -1.414,0.251 -1.394,0.342 -1.369,0.431 -1.338,0.519 -0.852,0.364 -1.329,0.636 -1.268,0.749 -1.197,0.857 -1.119,0.959 -0.368,0.345 -1.107,1.156 -0.973,1.271 -0.828,1.37 -0.674,1.451 -0.532,1.598 -0.345,1.649 -0.152,1.677 0.041,1.684 0.071,0.855 0.144,1.234 0.228,1.22 0.31,1.201 0.391,1.178 1.334,3.601 0.092,0.247 0.093,0.246 0.096,0.248 0.096,0.243 1.203,3.036 0.541,1.433 0.493,1.45 0.445,1.465 0.396,1.478 0.422,1.84 0.346,1.855 0.27,1.868 0.201,1.953 0.105,1.531 0.055,1.459 0.01,1.46 -0.033,1.458 -0.081,2.11 -0.04,0.916 -0.05,0.914 -0.06,0.915 -0.07,0.913 -0.29,3.522 -0.061,0.749 -0.058,0.749 -0.056,0.749 -0.053,0.751 -0.331,4.721 -0.022,0.316 -0.023,0.314 -0.024,0.316 -0.024,0.316 -0.303,3.842 -0.106,1.183 -0.132,1.182 -0.157,1.179 -0.183,1.175 -0.222,1.333 -0.287,1.533 -0.349,1.52 -0.41,1.505 -0.471,1.488 -0.122,0.359 -0.574,1.565 -0.649,1.538 -0.722,1.503 -0.794,1.469 -0.251,0.438 -0.775,1.278 -0.839,1.237 -0.9,1.192 -0.96,1.148 -0.715,0.811 -0.941,1.001 -1.005,0.94 -1.063,0.871 -1.117,0.803 -0.856,0.573 -1.28,0.772 -1.347,0.649 -1.401,0.519 -1.444,0.385 -0.233,0.05 -1.719,0.268 -1.739,0.065 -1.734,-0.137 -1.706,-0.341 -1.538,-0.491 -1.476,-0.655 -1.396,-0.812 -1.299,-0.959 -0.754,-0.62 -0.969,-0.856 -0.909,-0.917 -0.846,-0.976 -0.778,-1.031 -0.879,-1.249 -0.761,-1.133 -0.71,-1.169 -0.658,-1.199 -0.603,-1.225 -0.157,-0.338 -0.741,-1.717 -0.649,-1.752 -0.553,-1.785 -0.456,-1.812 -0.112,-0.499 -0.262,-1.274 -0.221,-1.282 -0.178,-1.289 -0.136,-1.293 -0.34,-3.843 -0.017,-0.203 -0.016,-0.201 -0.015,-0.203 -0.014,-0.201 -0.247,-3.745 -0.029,-1.34 0.089,-1.338 0.207,-1.325 0.323,-1.302 0.702,-1.9 0.948,-1.789 1.178,-1.647 1.386,-1.476 0.392,-0.366 0.798,-0.699 0.84,-0.65 0.879,-0.594 0.914,-0.54 2.429,-1.336 0.843,-0.486 0.821,-0.523 0.798,-0.558 0.774,-0.589 1.631,-1.301 1.039,-0.921 0.937,-1.027 0.823,-1.118 0.7,-1.201 0.488,-0.949 0.555,-1.304 0.357,-1.372 0.152,-1.411 -0.056,-1.417 -0.096,-0.845 -0.285,-1.361 -0.533,-1.283 -0.761,-1.165 -1.022,-1.052 -1.368,-0.946 -1.476,-0.586 -1.568,-0.246 -1.585,0.107 -1.24,0.34 -1.159,0.558 -1.04,0.758 -0.888,0.931 -1.824,2.295 -0.258,0.334 -0.249,0.343 -0.239,0.349 -0.229,0.356 -1.473,2.358 -0.899,1.241 -1.061,1.106 -1.203,0.95 -1.322,0.777 -1.467,0.605 -1.537,0.388 -1.578,0.168 -1.585,-0.058 -2.192,-0.237 -0.617,-0.078 -0.614,-0.097 -0.61,-0.117 -0.606,-0.14 -4.192,-1.029 -0.627,-0.158 -0.626,-0.165 -0.623,-0.171 -0.622,-0.181 -1.4775,-0.434 -1.8979,-0.609 -1.8662,-0.699 -1.8304,-0.788 -1.7903,-0.875 -1.3584,-0.706 -0.586,-0.29 -0.5957,-0.272 -0.6047,-0.251 -0.6128,-0.23 -2.675,-0.952 -1.1941,-0.335 -1.2289,-0.166 -1.2401,0.003 -1.228,0.172 -1.785,0.378 -0.971,0.314 -0.8848,0.509 -0.7605,0.68 -0.6034,0.823 -0.5291,1.311 -0.1332,1.407 0.2739,1.386 0.6983,1.306 0.8657,0.945 1.0124,0.67 1.1418,0.412 1.2068,0.133 4.1195,-0.043 0.1631,-0.002 2.1849,0.021 2.1785,0.113 2.1614,0.296 2.1287,0.475 2.1493,0.679 1.1287,0.38 1.0761,0.307 1.0893,0.256 1.0996,0.208 2.714,0.445 0.897,0.191 0.877,0.273 0.846,0.356 0.81,0.431 1.63,1.216 1.345,1.526 1,1.769 0.614,1.94 0.343,1.665 0.075,0.391 0.063,0.394 0.052,0.395 0.04,0.397 0.479,5.54 0.021,0.237 0.024,0.237 0.025,0.238 0.027,0.235 0.26,2.185 0.133,1.997 -0.075,1.998 -0.282,1.979 -0.485,1.939 -0.44,1.275 -0.529,1.242 -0.614,1.203 -0.696,1.154 -1.894,2.905 -0.187,0.286 -0.19,0.283 -0.191,0.284 -0.194,0.28 -2.505,3.592 -0.515,0.742 -0.513,0.744 -0.51,0.746 -0.508,0.747 -2.84,4.19 -3.2949,4.859 -0.2788,0.414 -0.2763,0.415 -0.2737,0.418 -0.2713,0.419 -1.7118,2.665 -0.7066,1.146 -0.6645,1.17 -0.6214,1.192 -0.5778,1.214 -0.7973,1.899 -0.6906,1.939 -0.5817,1.974 -0.471,2.004 -0.0762,0.369 -0.2189,1.148 -0.1857,1.152 -0.1522,1.157 -0.1187,1.161 -0.2586,2.952 -0.0718,0.781 -0.0787,0.78 -0.0852,0.78 -0.0918,0.778 -0.5447,4.455 -0.0481,0.402 -0.0454,0.404 -0.0431,0.402 -0.0466,0.467 -0.224,2.995 -0.0837,2.941 0.0511,2.939 0.187,2.957 0.043,0.479 0.0448,0.459 0.0481,0.459 0.0516,0.457 0.3654,3.14 0.1264,1.373 0.0603,1.38 -0.0058,1.379 -0.0722,1.378 -0.0934,1.22 -0.1569,1.4 -0.2544,1.385 -0.3512,1.364 -0.446,1.335 -0.3319,0.888 -0.5853,1.362 -0.715,1.299 -0.8377,1.221 -0.9525,1.136 -0.2082,0.225 -1.2138,1.163 -1.3445,1.009 -1.4558,0.84 -1.546,0.66 -1.5586,0.456 -1.6008,0.274 -1.6217,0.084 -1.6207,-0.103 -0.9499,-0.115 -1.2505,-0.198 -1.2336,-0.285 -1.2105,-0.371 -1.1814,-0.455 -3.4692,-1.478 -0.2529,-0.106 -0.2537,-0.105 -0.2543,-0.103 -0.2548,-0.103 -1.595,-0.634 -2.1454,-0.801 -2.1769,-0.709 -2.2045,-0.621 -2.2286,-0.527 -1.1133,-0.229 -1.1177,-0.204 -1.1219,-0.18 -1.1251,-0.158 -2.5672,-0.334 -0.9932,-0.137 -0.9909,-0.151 -0.9885,-0.165 -0.9862,-0.181 -1.6505,-0.316 -1.5515,-0.325 -1.5388,-0.379 -1.5242,-0.437 -1.5874,-0.517 -1.7247,-0.634 -1.618,-0.673 -1.5887,-0.741 -1.5565,-0.805 -1.4501,-0.828 -1.4162,-0.883 -1.3799,-0.94 -1.3418,-0.995 -0.2879,-0.222 -1.2298,-0.982 -1.196,-1.022 -1.1609,-1.064 -1.1244,-1.101 -0.3815,-0.387 -1.0923,-1.144 -1.05402,-1.178 -1.01463,-1.215 -0.97411,-1.246 -0.51439,-0.68 -0.833,-1.148 L 5.25239,372.478 4.50982,371.27 3.81418,370.035 3.36472,369.198 2.67769,367.834 2.0655,366.436 1.52995,365.005 1.07263,363.546 0.859758,362.797 0.499143,361.347 0.236055,359.875 0.0716806,358.389 0.00671748,356.896 0,356.227 l 0.0507908,-1.57 0.1837472,-1.56 0.315437,-1.539 0.444747,-1.509 0.155198,-0.453 0.58299,-1.466 0.72373,-1.403 0.85754,-1.325 0.98305,-1.233 0.31211,-0.356 1.09897,-1.117 1.21664,-0.987 1.31917,-0.846 1.40523,-0.692 0.16904,-0.072 1.61201,-0.567 1.6712,-0.356 1.703,-0.139 1.7068,0.081 1.6238,0.283 1.5766,0.481 1.5048,0.674 1.4103,0.854 0.6802,0.47 1.0481,0.789 0.9826,0.871 0.9105,0.945 0.8332,1.013 1.4883,1.964 0.5149,0.699 0.4958,0.712 0.4764,0.726 0.4565,0.739 1.9867,3.314 0.3269,0.541 0.3302,0.54 0.3337,0.537 0.3367,0.535 1.2906,2.037 0.8653,1.34 0.8884,1.325 0.9114,1.311 0.9339,1.292 0.5633,0.766 0.8178,1.089 0.8394,1.072 0.8606,1.055 0.8816,1.038 1.0374,1.197 0.8514,0.952 0.88,0.926 0.9076,0.9 0.9346,0.871 1.3081,1.182 0.961,0.825 1.0018,0.775 1.0399,0.723 1.0756,0.668 1.306,0.768 1.2233,0.648 1.2742,0.543 1.3162,0.429 1.3481,0.315 0.4948,0.094 1.7125,0.215 1.7262,0.005 1.7137,-0.206 1.6756,-0.414 1.4927,-0.564 1.4195,-0.726 1.3281,-0.885 1.2196,-1.028 0.6692,-0.632 0.8917,-0.929 0.7968,-1.01 0.6944,-1.084 0.5855,-1.148 0.4632,-1.027 0.5028,-1.394 0.2836,-1.453 0.0578,-1.481 -0.1698,-1.471 -0.4764,-1.651 -0.7616,-1.539 -1.0229,-1.381 -1.2517,-1.177 -0.7776,-0.61 -0.8019,-0.579 -0.846,-0.512 -0.8846,-0.443 -0.917,-0.371 -2.2939,-0.82 -1.1078,-0.446 -1.0689,-0.533 -1.0234,-0.615 -0.9717,-0.694 -0.871,-0.677 -1.1834,-1.058 -1.0229,-1.217 -0.8422,-1.347 -0.6449,-1.451 -0.4487,-1.595 -0.2103,-1.645 0.0328,-1.657 0.275,-1.635 0.1342,-0.548 0.3809,-1.273 0.5073,-1.227 0.6286,-1.172 0.7436,-1.101 1.8779,-2.498 0.2938,-0.385 0.3005,-0.378 0.3068,-0.374 0.3132,-0.369 2.0781,-2.406 0.8575,-1.049 0.7983,-1.095 0.7365,-1.139 0.6726,-1.177 0.1292,-0.24 0.8245,-1.706 0.6807,-1.768 0.5322,-1.819 0.3802,-1.856 0.189,-1.463 0.0943,-1.473 -7e-4,-1.476 -0.0959,-1.474 -0.1151,-1.178 -0.1573,-1.328 -0.2127,-1.32 -0.2677,-1.31 -0.3218,-1.297 -0.2817,-1.042 -0.4288,-1.484 -0.4797,-1.469 -0.5298,-1.452 -0.6116,-1.508 -0.7649,-1.714 -0.7942,-1.61 -0.8546,-1.577 -0.9138,-1.545 -0.2578,-0.417 -0.7407,-1.167 -0.7702,-1.146 -0.7995,-1.125 -0.8279,-1.106 -1.6258,-2.112 -0.4288,-0.574 -0.4125,-0.586 -0.3958,-0.597 -0.3788,-0.609 -1.4101,-2.334 -0.6225,-1.165 -0.497,-1.223 -0.3664,-1.27 -0.2318,-1.299 -0.0643,-0.515 -0.0792,-1.687 0.1803,-1.677 0.4355,-1.632 0.6805,-1.545 0.7882,-1.257 0.9511,-1.141 1.0964,-1.001 1.2215,-0.846 1.6111,-0.958 0.7704,-0.435 0.791,-0.393 0.8097,-0.354 0.8261,-0.315 3.3673,-1.182 0.7159,-0.259 0.7111,-0.272 0.7058,-0.287 0.7002,-0.297 2.4908,-1.091 1.207,-0.482 1.2361,-0.402 1.2597,-0.322 1.2778,-0.238 2.0283,-0.205 2.0386,0.002 2.0277,0.209 2.0573,0.433 1.2537,0.366 1.1687,0.423 1.1411,0.493 1.1093,0.56 2.0932,1.139 0.8693,0.457 0.8809,0.436 0.8916,0.414 0.902,0.39 3.1386,1.31 0.6847,0.261 0.7,0.216 0.712,0.174 0.722,0.127 3.889,0.556 0.658,0.023 0.647,-0.119 0.607,-0.254 0.538,-0.378 0.852,-1.24 0.156,-1.499 -0.577,-1.389 -1.171,-0.947 -1.158,-0.533 -0.174,-0.073 -0.177,-0.067 -0.181,-0.057 -0.183,-0.05 -2.092,-0.502 -2.063,-0.587 -2.008,-0.756 -1.9384,-0.921 -1.8553,-1.077 -0.6154,-0.394 -0.7506,-0.462 -0.7645,-0.44 -0.7775,-0.415 -0.7902,-0.392 -1.2649,-0.603 -1.6825,-0.713 -1.7384,-0.563 -1.7812,-0.409 -1.8101,-0.253 -1.5581,-0.087 -1.5602,0.027 -1.5538,0.146 -1.5387,0.261 -0.7608,0.158 -1.4191,0.337 -1.3981,0.417 -1.3724,0.493 -1.3426,0.571 -1.9233,0.883 -0.832,0.356 -0.849,0.314 -0.864,0.27 -0.9116,0.233 -2.4267,0.389 -2.4212,0.049 -2.4048,-0.285 -2.343,-0.613 -0.8676,-0.318 -0.8497,-0.362 -0.8295,-0.408 -0.8068,-0.448 -1.5204,-0.902 -1.3648,-0.862 -1.3132,-0.938 -1.2574,-1.012 -1.1976,-1.083 -0.2608,-0.251 -1.1344,-1.156 -1.0583,-1.226 -0.9781,-1.292 -0.9083,-1.376 -0.8849,-1.554 -0.7607,-1.587 -0.6475,-1.636 -0.5311,-1.678 -0.3883,-1.598 -0.2827,-1.62 -0.1758,-1.635 -0.0682,-1.643 -0.0041,-0.484 0.0273,-1.524 0.1082,-1.52 0.1888,-1.512 0.2687,-1.5 0.2132,-1.033 0.3007,-1.335 0.3477,-1.322 0.3945,-1.311 0.4406,-1.296 0.6982,-1.938 0.3612,-0.963 0.3858,-0.954 0.4106,-0.945 0.4347,-0.933 0.9285,-1.925 0.6113,-1.177 0.6807,-1.139 0.7477,-1.095 0.8119,-1.048 0.9722,-1.18 0.8741,-0.965 0.9602,-0.88 1.0379,-0.787 1.1065,-0.687 1.4148,-0.789 1.1052,-0.517 1.1677,-0.352 1.2062,-0.182 1.2198,-0.009 0.8774,0.059 1.4603,0.261 1.366,0.579 1.2043,0.866 0.9828,1.111 0.6632,1.184 0.4094,1.295 0.1383,1.351 -0.1383,1.35 -0.2931,1.416 -0.2419,0.938 -0.3312,0.908 -0.4175,0.873 -0.4999,0.83 -1.5607,2.325 -0.555,0.886 -0.4962,0.923 -0.4352,0.953 -0.3719,0.979 -0.2653,0.773 -0.4637,1.725 -0.2254,1.773 0.017,1.787 0.2591,1.766 0.3867,1.404 0.5393,1.35 0.6853,1.283 0.8229,1.201 0.6324,0.82 0.881,1.056 0.9602,0.985 1.0334,0.907 1.1005,0.824 0.6512,0.449 1.3563,0.867 1.4141,0.77 1.4648,0.667 1.5082,0.563 1.0537,0.351 1.1636,0.362 1.177,0.316 1.1887,0.268 1.1983,0.222 1.8662,0.306 1.2447,0.227 1.2358,0.269 1.2254,0.315 1.2134,0.359 2.0036,0.695 1.9583,0.813 1.9067,0.93 1.8478,1.041 1.9526,1.176 0.1944,0.119 0.2588,0.158 3.3793,2.089 1.1311,0.675 1.1525,0.638 1.172,0.599 1.192,0.562 1.782,0.804 1.044,0.44 1.065,0.385 1.084,0.328 1.099,0.271 0.437,0.097 1.941,0.326 1.963,0.131 1.967,-0.066 1.95,-0.264 1.344,-0.299 1.32,-0.394 1.289,-0.484 1.253,-0.574 1.4,-0.703 1.099,-0.591 1.062,-0.654 1.023,-0.715 0.979,-0.773 1.018,-0.854 1.06,-0.979 0.96,-1.081 0.849,-1.168 0.732,-1.244 0.36,-0.69 0.598,-1.34 0.425,-1.404 0.247,-1.447 0.064,-1.468 -0.163,-1.739 -0.418,-1.692 -0.665,-1.61 -0.897,-1.495 -0.943,-1.168 -1.085,-1.038 -1.209,-0.89 -1.313,-0.726 -1.722,-0.816 -0.842,-0.373 -0.858,-0.332 -0.874,-0.29 -0.888,-0.247 -1.684,-0.427 -1.57,-0.434 -1.549,-0.504 -1.525,-0.57 -1.498,-0.637 -0.65,-0.296 -1.299,-0.611 -1.278,-0.655 -1.256,-0.694 -1.234,-0.735 -3.192,-1.969 -0.155,-0.096 -0.207,-0.128 -5.328,-3.253 -0.189,-0.116 -0.189,-0.116 -0.1885,-0.117 -0.1885,-0.117 -3.2401,-2.024 -1.0868,-0.706 -1.0607,-0.746 -1.0332,-0.781 -1.0045,-0.82 -0.7796,-0.659 -1.1949,-1.072 -1.1298,-1.139 -1.0612,-1.205 -0.9887,-1.264 -1.015,-1.479 -0.916,-1.542 -0.8133,-1.597 -0.707,-1.648 -0.1771,-0.453 -0.4721,-1.292 -0.4144,-1.311 -0.3561,-1.328 -0.2971,-1.344 -0.5147,-2.599 -0.1376,-0.716 -0.1289,-0.718 -0.1202,-0.72 -0.1117,-0.722 -0.473,-3.178 -0.1717,-1.082 -0.193,-1.079 -0.2139,-1.076 -0.2347,-1.07 -0.276,-1.203 -0.4173,-1.659 -0.4857,-1.643 -0.5532,-1.62 -0.6197,-1.594 -0.6839,-1.567 -0.7482,-1.536 -0.8109,-1.505 -0.8722,-1.47 -0.5405,-0.868 -0.6489,-1.019 -0.6718,-1.003 -0.6939,-0.986 -0.716,-0.973 -2.0228,-2.681 -0.328,-0.439 -0.3253,-0.439 -0.3225,-0.442 -0.3199,-0.443 -1.8255,-2.55 -0.7488,-1.082 -0.7131,-1.105 -0.6767,-1.128 -0.6396,-1.151 -0.4622,-0.863 -0.7251,-1.445 -0.6493,-1.479 -0.5712,-1.512 -0.492,-1.539 -0.1134,-0.39 -0.402,-1.546 -0.3119,-1.565 -0.2206,-1.583 -0.1286,-1.592 -0.0328,-0.634 -0.0282,-1.5 0.0706,-1.496 0.1687,-1.49 0.2665,-1.476 0.1328,-0.618 0.3994,-1.543 0.5269,-1.503 0.6508,-1.454 0.77,-1.395 0.2336,-0.384 0.8846,-1.311 1.0046,-1.22 1.1156,-1.122 1.2167,-1.01 0.4989,-0.375 1.2396,-0.833 1.3218,-0.694 1.3892,-0.548 1.4398,-0.395 0.4196,-0.091 1.629,-0.242 1.6463,-0.021 1.6345,0.199 1.5933,0.416 1.5416,0.634 1.4414,0.838 1.3149,1.024 1.164,1.194 0.195,0.229 0.9064,1.196 0.7669,1.288 0.6176,1.366 0.4606,1.428 0.2848,1.089 0.2839,1.266 0.1934,1.283 0.1019,1.292 0.01,1.299 -0.0729,2.618 -0.0311,0.803 -0.0486,0.8 -0.0661,0.799 -0.0837,0.799 -0.3213,2.771 -0.1309,1.228 -0.1079,1.23 -0.0852,1.234 -0.0622,1.233 -0.0345,0.837 -0.0437,1.773 0.015,1.775 0.0733,1.773 0.1318,1.769 0.1749,1.641 0.2251,1.636 0.275,1.627 0.3247,1.616 0.1208,0.558 0.3335,1.454 0.3676,1.446 0.4019,1.439 0.4356,1.427 0.2452,0.77 0.4795,1.457 0.508,1.446 0.5365,1.438 0.5646,1.426 0.5102,1.253 0.4742,1.125 0.5016,1.111 0.5285,1.102 0.5551,1.087 0.7253,1.38 0.6914,1.247 0.7456,1.216 0.7981,1.182 0.8494,1.146 0.3541,0.455 1.0791,1.308 1.156,1.237 1.23,1.165 1.298,1.089 1.368,1.01 1.427,0.924 1.481,0.835 1.529,0.744 0.232,0.105 1.45,0.605 1.481,0.529 1.506,0.45 1.527,0.369 0.516,0.11 1.546,0.296 1.557,0.225 1.566,0.154 1.572,0.083 0.987,0.031 1.346,0.005 1.345,-0.064 1.34,-0.132 1.331,-0.203 1.294,-0.23 1.362,-0.299 1.335,-0.405 1.298,-0.509 1.255,-0.608 0.988,-0.529 1.192,-0.725 1.104,-0.849 1.005,-0.967 0.894,-1.07 0.359,-0.483 0.843,-1.323 0.641,-1.431 0.425,-1.51 0.2,-1.557 -0.032,-1.584 -0.264,-1.563 -0.493,-1.507 -0.709,-1.417 -0.409,-0.687 -0.687,-1.036 -0.78,-0.969 -0.867,-0.892 -0.947,-0.807 -2.794,-2.167 -0.31,-0.237 -0.313,-0.233 -0.315,-0.229 -0.318,-0.227 -2.355,-1.647 -1.3,-0.937 -1.275,-0.97 -1.249,-1.005 -1.221,-1.04 -0.395,-0.343 -1.159,-1.045 -1.126,-1.077 -1.092,-1.112 -1.059,-1.144 -0.761,-0.848 -0.847,-0.981 -0.811,-1.011 -0.774,-1.037 -0.735,-1.067 -0.317,-0.478 -0.964,-1.553 -0.871,-1.606 -0.774,-1.658 -0.674,-1.699 -0.492,-1.471 -0.418,-1.494 -0.341,-1.514 -0.265,-1.529 -0.359,-2.438 -0.098,-0.634 -0.108,-0.632 -0.116,-0.632 -0.126,-0.629 -0.212,-1.02 -0.521,-2.175 -0.655,-2.136 -0.786,-2.092 -0.915,-2.04 -0.523,-1.03 -0.555,-1.014 -0.587,-0.997 -0.619,-0.975 -1.413,-2.15 -0.538,-0.829 -0.527,-0.839 -0.517,-0.845 -0.505,-0.852 -1.203,-2.055 -0.619,-1.087 -0.594,-1.1 -0.569,-1.115 -0.5433,-1.125 -0.569,-1.215 -0.6103,-1.372 -0.5556,-1.396 -0.4999,-1.417 -0.4438,-1.4343 -0.0496,-0.1735 -0.4582,-1.7576 -0.3695,-1.7781 -0.2799,-1.7936 -0.1895,-1.8074 -0.0916,-1.5874 -0.0216,-1.5908 0.0483,-1.5892 0.1178,-1.5857 0.1009,-1.0462 0.1429,-1.2989 0.1781,-1.2937 0.2133,-1.2884 0.248,-1.2817 0.3263,-1.572 0.28,-1.2918 0.3024,-1.2869 0.3247,-1.2816 0.347,-1.2765 0.4752,-1.6888 0.35,-1.1802 0.3826,-1.17 0.4149,-1.1597 0.4474,-1.1475 0.372,-0.9192 0.672,-1.5462 0.748,-1.5119 0.82,-1.474 0.892,-1.431 0.98,-1.4123 1.05,-1.3606 1.116,-1.3074 1.181,-1.249 0.204,-0.2045 1.117,-1.0789 1.161,-1.0308 1.204,-0.9809 1.281,-0.9587 1.536,-1.0462 1.545,-0.945 1.588,-0.871 1.629,-0.792 1.472,-0.6356 1.498,-0.5721 1.521,-0.5086 1.541,-0.4415 0.826,-0.2182 1.35,-0.3264 1.363,-0.2714 1.372,-0.2165 1.381,-0.1597 1.908,-0.1804 1.066,-0.0687 1.068,-0.0052 1.067,0.0584 1.061,0.1203 1.578,0.2302 1.444,0.3023 1.394,0.4811 1.322,0.6528 1.244,0.823 1.355,1.1974 1.142,1.3761 0.918,1.5376 0.67,1.6596 0.365,1.4826 0.168,1.517 -0.033,1.5273 -0.233,1.5084 -0.135,0.6048 -0.414,1.4723 -0.573,1.4191 -0.725,1.3469 -0.868,1.2593 -0.322,0.4157 -1.037,1.2112 -1.15,1.1047 -1.253,0.9861 -1.344,0.859 -0.916,0.524 -1.132,0.6047 -1.166,0.5343 -1.195,0.4657 -1.222,0.3933 -3.611,1.0463 -0.253,0.0721 -0.253,0.0722 -0.254,0.0687 -0.253,0.0688 -3.787,1.017 -1.161,0.3351 -1.147,0.3813 -1.132,0.4243 -1.114,0.469 -1.274,0.5653 -1.36,0.6631 -1.31,0.7577 -1.253,0.8486 -1.189,0.9364 -0.287,0.2422 -1.244,1.1494 -1.137,1.2558 -1.022,1.3504 -0.899,1.4345 -0.765,1.4998 -0.631,1.5617 -0.491,1.6114 -0.348,1.6476 -0.052,0.3161 -0.196,1.5257 -0.083,1.5341 0.029,1.5359 0.141,1.5307 0.142,1.1013 0.198,1.2954 0.258,1.2833 0.316,1.273 0.374,1.256 0.865,2.677 0.222,0.671 0.229,0.669 0.237,0.664 0.246,0.664 1.591,4.222 0.166,0.442 0.164,0.441 0.164,0.442 0.162,0.443 1.232,3.383 0.388,1.096 0.37,1.101 0.35,1.11 0.33,1.113 0.589,2.189 0.515,2.208 0.439,2.223 0.363,2.237 0.215,1.479 0.062,0.407 0.067,0.404 0.072,0.405 0.077,0.402 0.672,3.38 0.31,1.243 0.425,1.21 0.538,1.163 0.646,1.108 0.374,0.576 1.014,1.334 1.202,1.17 1.361,0.98 1.491,0.768 1.445,0.498 1.498,0.3 1.525,0.095 1.524,-0.112 0.542,-0.077 1.442,-0.287 1.401,-0.445 1.343,-0.598 1.269,-0.742 0.76,-0.503 1.138,-0.821 1.068,-0.913 0.991,-0.996 0.907,-1.072 0.788,-1.014 0.794,-1.077 0.734,-1.118 0.675,-1.157 0.611,-1.19 0.509,-1.059 0.617,-1.353 0.56,-1.38 0.504,-1.4 0.445,-1.419 0.208,-0.715 0.409,-1.503 0.358,-1.517 0.305,-1.529 0.252,-1.538 0.2,-1.372 0.16,-1.162 0.138,-1.165 0.117,-1.168 0.096,-1.168 0.24,-3.275 0.048,-0.616 0.053,-0.617 0.059,-0.615 0.064,-0.615 0.341,-3.142 0.157,-1.22 0.205,-1.215 0.254,-1.204 0.301,-1.192 0.406,-1.486 0.417,-1.3405 0.511,-1.3073 0.6,-1.2696 0.688,-1.2233 0.421,-0.6923 0.869,-1.2816 0.99,-1.194 1.101,-1.091 1.201,-0.9775 0.218,-0.1615 1.353,-0.8865 1.442,-0.7336 1.514,-0.5704 1.574,-0.4037 1.651,-0.2319 1.66,-0.043 1.654,0.1443 1.627,0.3299 1.544,0.4982 1.48,0.6649 1.398,0.8246 1.297,0.9741 0.308,0.2577 1.091,1.0067 0.996,1.0979 0.895,1.1854 0.783,1.2593 1.014,1.8091 0.412,0.7627 0.389,0.7766 0.364,0.7868 0.34,0.7985 1.11,2.727 0.428,1.003 0.465,0.986 0.5,0.969 0.534,0.95 0.712,1.213 0.857,1.345 0.957,1.277 1.051,1.201 1.138,1.118 1.348,1.129 1.44,1.013 1.517,0.89 1.656,0.791 1.498,0.584 1.466,0.455 1.493,0.351 1.515,0.247 0.883,0.112 1.41,0.144 1.418,0.072 1.417,0.002 1.416,-0.069 1.5,-0.112 1.243,-0.108 1.243,-0.146 1.235,-0.182 1.23,-0.216 3.096,-0.593 0.596,-0.115 0.594,-0.121 0.593,-0.123 0.593,-0.126 3.741,-0.812 0.894,-0.186 0.898,-0.17 0.901,-0.151 0.903,-0.137 2.417,-0.342 1.279,-0.148 1.285,-0.083 1.287,-0.018 1.286,0.046 0.895,0.053 1.636,0.169 1.617,0.298 1.587,0.432 1.546,0.558 1.543,0.706 1.477,0.835 1.402,0.955 1.316,1.071 1.016,0.898 0.749,0.687 0.723,0.713 0.696,0.741 0.67,0.763 1.766,2.09 0.685,0.792 0.705,0.775 0.721,0.758 0.741,0.742 0.891,0.871 1.277,1.182 1.338,1.113 1.395,1.041 1.45,0.964 1.428,0.844 1.467,0.771 1.507,0.696 1.537,0.617 1.27,0.47 1.02,0.366 1.03,0.342 1.037,0.318 1.045,0.292 3.106,0.83 0.716,0.194 0.713,0.199 0.713,0.205 0.71,0.209 2.573,0.772 1.284,0.402 1.273,0.438 1.259,0.472 1.247,0.505 1.227,0.518 1.29,0.575 1.265,0.629 1.238,0.68 1.21,0.732 1.642,1.11 1.576,1.206 1.503,1.294 1.424,1.381 1.91,1.962 0.141,0.146 3.208,3.388 0.725,0.668 0.811,0.563 0.879,0.445 0.983,0.335 1.825,0.255 1.776,-0.218 1.663,-0.662 1.441,-1.062 0.767,-0.865 0.613,-0.98 0.445,-1.068 0.261,-1.126 0.378,-2.578 0.156,-0.87 0.206,-0.859 0.26,-0.845 0.309,-0.828 1.134,-2.771 0.38,-0.976 0.342,-0.989 0.305,-1 0.27,-1.012 0.155,-0.627 0.398,-1.957 0.241,-1.983 0.077,-1.996 -0.086,-1.995 -0.153,-1.377 -0.23,-1.366 -0.307,-1.352 -0.384,-1.332 -0.819,-2.57 -0.211,-0.651 -0.222,-0.649 -0.232,-0.645 -0.239,-0.642 -1.135,-2.971 -0.385,-1.087 -0.332,-1.103 -0.28,-1.12 -0.223,-1.131 -0.144,-0.821 -0.224,-1.775 -0.062,-1.785 0.105,-1.785 0.267,-1.767 0.362,-1.507 0.483,-1.474 0.598,-1.431 0.709,-1.38 0.715,-1.2625 0.572,-0.9655 0.61,-0.9398 0.646,-0.9174 0.68,-0.8899 1.416,-1.7764 0.74,-0.9088 0.76,-0.8952 0.776,-0.8778 0.796,-0.8625 0.747,-0.7937 1.192,-1.2266 1.23,-1.1855 1.27,-1.1442 1.306,-1.1029 1.34,-1.0583 1.374,-1.0136 1.407,-0.969 1.438,-0.9226 0.701,-0.4346 1.122,-0.6734 1.135,-0.6461 1.153,-0.6184 1.167,-0.5893 0.795,-0.3882 1.517,-0.7044 1.546,-0.646 1.571,-0.5807 1.59,-0.5188 2.679,-0.8143 0.319,-0.1048 0.315,-0.1168 0.309,-0.1306 0.304,-0.1426 2.96,-1.4689 0.833,-0.5859 0.621,-0.8074 0.35,-0.9569 0.048,-1.0188 -0.316,-1.1115 -0.675,-0.9398 -0.952,-0.6563 -1.118,-0.2955 -1.644,-0.1408 -0.749,-0.0121 -0.744,0.0945 -0.724,0.1959 -0.688,0.2937 -4.627,2.3726 -0.187,0.0945 -3.447,1.706 -1.324,0.6236 -1.349,0.5721 -1.369,0.5205 -1.388,0.4656 -1.868,0.536 -1.893,0.4382 -1.914,0.3418 -1.927,0.2405 -0.777,0.0774 -1.072,0.0944 -1.074,0.0688 -1.075,0.0429 -1.076,0.0172 -2.869,0.012 -0.922,-0.0034 -0.923,-0.0189 -0.921,-0.0361 -0.921,-0.0532 -2.192,-0.1427 -1.4,-0.1237 -1.393,-0.1907 -1.381,-0.2542 -1.37,-0.3195 -1.908,-0.5618 -1.866,-0.689 -1.818,-0.8109 -1.787,-0.9449 -1.197,-0.7198 -1.137,-0.7576 -1.102,-0.8058 -1.065,-0.8572 -0.988,-0.8299 -1.065,-0.9259 -1.036,-0.9587 -1.005,-0.993 -0.972,-1.0222 -0.467,-0.5051 -1.112,-1.2438 -1.074,-1.2765 -1.036,-1.3074 -0.994,-1.3383 -0.648,-0.8985 -0.696,-0.9828 -0.68,-0.9946 -0.665,-1.0051 -0.648,-1.0154 -1.542,-2.4653 -0.416,-0.6545 -0.423,-0.6477 -0.431,-0.6443 -0.438,-0.6373 -1.412,-2.0256 -0.835,-1.1459 -0.882,-1.1081 -0.929,-1.072 -0.972,-1.0308 -0.564,-0.5721 -1.144,-1.0944 -1.208,-1.0274 -1.264,-0.9534 -1.32,-0.8762 -0.517,-0.3213 -1.3,-0.7508 -1.347,-0.6614 -1.39,-0.5686 -1.423,-0.4742 -0.726,-0.2165 -1.449,-0.3625 -1.474,-0.2422 -1.488,-0.1186 -1.494,0.0069 -0.504,0.0241 -1.575,0.1546 -1.551,0.3161 -1.512,0.4725 -1.455,0.6253 -1.483,0.835 -1.383,0.9929 -1.264,1.1391 -1.131,1.2713 -0.151,0.1873 -0.874,1.2077 -0.763,1.2817 -0.643,1.3452 -0.519,1.3984 -0.553,1.7214 -0.287,0.9552 -0.249,0.9656 -0.215,0.9741 -0.177,0.981 -0.493,3.0683 -0.156,0.8625 -0.189,0.8555 -0.223,0.8469 -0.258,0.8385 -1.319,4.0184 -0.138,0.3521 -0.175,0.3334 -0.211,0.3126 -0.244,0.2887 -1.512,0.9225 -1.77,0.043 z"
         inkscape:connector-curvature="0"
         style="fill:#190b2f" />
    </g>
    <g
       style="fill:none"
       id="g910"
       transform="matrix(0.26458333,0,0,0.26458333,157.70479,231.39869)">
      <path
         id="path899"
         d="m 394.749,237.94 -0.324,-0.575 -1.764,-2.858 -0.429,-0.757 -0.37,-0.787 -0.312,-0.812 -0.248,-0.834 -0.736,-2.04 -1.103,-1.869 -1.434,-1.629 -1.712,-1.332 -0.678,-0.432 -0.46,-0.282 -0.471,-0.262 -0.482,-0.243 -0.49,-0.225 -1.711,-0.74 -1.585,-0.732 -1.549,-0.807 -1.508,-0.876 -1.466,-0.949 -1.325,-0.901 -0.55,-0.386 -0.537,-0.401 -0.526,-0.416 -0.513,-0.435 -0.762,-0.661 -1.567,-1.22 -1.694,-1.041 -1.796,-0.85 -1.88,-0.649 -1.157,-0.288 -1.174,-0.212 -1.184,-0.135 -1.192,-0.056 -2.661,-0.038 -0.675,0.023 -0.67,0.085 -0.658,0.152 -0.642,0.211 -0.436,0.17 -1.677,0.958 -1.313,1.412 -0.834,1.742 -0.275,1.911 -0.066,0.974 -0.214,0.953 -0.356,0.909 -0.492,0.843 -0.998,1.453 -0.66,1.121 -0.495,1.207 -0.319,1.263 -0.137,1.297 0.112,1.777 0.453,1.725 0.777,1.604 1.073,1.422 1.161,1.264 0.303,0.319 0.315,0.31 0.323,0.3 0.333,0.287 2.791,2.332 0.695,0.651 0.616,0.725 0.53,0.791 0.435,0.846 0.595,1.952 0.105,2.037 -0.393,2.003 -0.868,1.848 -0.601,0.956 -0.171,0.262 -0.177,0.256 -0.187,0.251 -0.193,0.247 -1.532,1.89 -1.114,1.261 -1.217,1.165 -1.31,1.056 -1.395,0.94 -1.311,0.74 -1.364,0.637 -1.408,0.534 -1.443,0.423 -1.783,0.453 -0.765,0.185 -0.77,0.163 -0.773,0.148 -0.777,0.127 -3.392,0.512 -0.717,0.083 -0.721,0.033 -0.721,-0.017 -0.719,-0.067 -1.173,-0.151 -1.723,-0.421 -1.587,-0.793 -1.372,-1.124 -1.087,-1.401 -0.536,-1.042 -0.377,-1.11 -0.208,-1.152 -0.038,-1.172 0.14,-3.351 0.012,-0.324 0.005,-0.323 v -0.323 l -0.005,-0.324 -0.082,-3.073 -0.08,-1.36 -0.169,-1.349 -0.256,-1.336 -0.343,-1.317 -0.599,-1.737 -0.748,-1.677 -0.894,-1.606 -1.032,-1.521 -1.629,-2.187 -1.844,-2.455 -0.779,-1.35 -0.434,-1.497 -0.065,-1.555 0.311,-1.527 0.538,-1.2 0.77,-1.067 0.969,-0.889 1.13,-0.675 1.729,-0.807 0.721,-0.307 0.742,-0.252 0.758,-0.2 0.771,-0.145 2.095,-0.314 1.346,-0.242 1.33,-0.318 1.309,-0.395 1.284,-0.47 1.676,-0.741 1.614,-0.869 1.541,-0.991 1.461,-1.106 1.032,-0.845 0.55,-0.44 0.561,-0.43 0.571,-0.416 0.579,-0.403 0.548,-0.375 1.842,-1.151 1.925,-1.005 1.998,-0.853 2.059,-0.693 0.992,-0.271 1.004,-0.235 1.01,-0.198 1.017,-0.16 1.756,-0.243 1.298,-0.158 1.305,-0.114 1.307,-0.07 1.308,-0.027 1.492,-0.005 1.168,0.025 1.165,0.082 1.16,0.138 1.151,0.197 0.819,0.16 1.577,0.378 1.539,0.511 1.489,0.642 1.429,0.765 0.284,0.167 1.177,0.765 1.112,0.858 1.036,0.95 0.955,1.029 1.303,1.528 0.542,0.573 0.598,0.513 0.651,0.447 0.743,0.402 2.05,0.653 2.094,0.038 2.021,-0.552 1.784,-1.098 0.586,-0.544 0.523,-0.604 0.456,-0.658 0.38,-0.702 1.168,-2.466 0.472,-0.933 0.522,-0.907 0.568,-0.878 0.615,-0.847 0.836,-1.089 0.938,-1.141 1.016,-1.074 1.085,-1.002 1.153,-0.926 0.308,-0.23 1.259,-0.866 1.324,-0.763 1.38,-0.655 1.429,-0.543 0.168,-0.057 1.509,-0.434 1.541,-0.303 1.562,-0.17 1.57,-0.031 1.602,0.105 1.586,0.248 1.558,0.386 1.519,0.523 2.143,0.845 0.422,0.17 0.418,0.175 0.417,0.183 0.412,0.188 3.384,1.568 0.83,0.372 0.841,0.347 0.85,0.323 0.881,0.306 2.201,0.648 2.217,0.482 2.245,0.322 2.264,0.164 0.941,0.02 0.941,-0.008 0.939,-0.036 0.939,-0.063 0.882,-0.073 1.826,-0.095 1.829,0.017 1.825,0.125 1.814,0.236 1.36,0.252 1.347,0.313 1.331,0.374 1.312,0.434 1.575,0.563 0.95,0.327 0.958,0.308 0.964,0.289 0.97,0.268 2.442,0.649 0.925,0.255 0.919,0.274 0.912,0.291 0.907,0.312 0.348,0.123 1.939,0.738 1.903,0.829 1.861,0.917 1.815,1.004 0.982,0.591 0.967,0.618 0.949,0.642 0.933,0.666 1.395,1.026 0.974,0.728 0.959,0.745 0.947,0.763 0.934,0.778 0.383,0.328 1.324,1.158 1.289,1.196 1.253,1.234 1.216,1.271 1.009,1.085 0.489,0.539 0.475,0.55 0.463,0.562 0.446,0.573 1.71,2.243 0.615,0.88 0.538,0.927 0.462,0.968 0.378,1.004 0.288,0.875 0.379,1.546 0.132,1.586 -0.119,1.589 -0.367,1.549 -0.565,1.386 -0.76,1.289 -0.945,1.161 -1.105,1.009 -1.615,1.269 -0.522,0.394 -0.539,0.375 -0.551,0.353 -0.566,0.331 -3.075,1.722 -0.712,0.39 -0.716,0.378 -0.724,0.365 -0.729,0.353 -0.801,0.378 -1.795,0.795 -1.832,0.705 -1.867,0.61 -1.895,0.514 -1.215,0.318 -1.204,0.357 -1.19,0.396 -1.178,0.435 -1.264,0.488 -1.202,0.481 -1.191,0.505 -1.18,0.532 -1.167,0.557 -1.288,0.63 -1.09,0.545 -1.082,0.557 -1.075,0.571 -1.067,0.585 -2.391,1.332 -0.563,0.312 -0.564,0.311 -0.566,0.31 -0.567,0.306 -3.565,1.924 -0.492,0.266 -0.495,0.264 -0.495,0.261 -0.497,0.26 -3.752,1.959 -0.493,0.25 -0.497,0.245 -0.501,0.233 -0.505,0.227 -2.967,1.298 -0.969,0.377 -0.997,0.297 -1.018,0.216 -1.032,0.13 -0.189,0.016 -1.992,0.006 -1.966,-0.318 -1.889,-0.636 -1.759,-0.936 -0.931,-0.66 -0.865,-0.747 -0.791,-0.822 -0.711,-0.894 -0.67,-0.931 -0.81,-1.238 -0.696,-1.306 -0.576,-1.363 -0.451,-1.409 -0.36,-1.667 -0.184,-1.697 -0.008,-1.706 0.169,-1.699 0.144,-0.952 0.178,-0.998 0.223,-0.987 0.272,-0.976 0.319,-0.961 1.355,-3.784 0.067,-0.192 0.063,-0.195 0.06,-0.197 0.054,-0.197 0.966,-3.583 0.135,-1.043 -0.145,-1.041 -0.418,-0.966 -0.659,-0.822 -1.311,-0.824 -1.528,-0.254 -1.509,0.356 -1.253,0.912 -0.169,0.183 -0.435,0.563 -0.333,0.628 -0.222,0.675 -0.104,0.703 -0.217,3.51 -0.051,0.6 -0.075,0.597 -0.102,0.592 -0.126,0.589 -0.799,3.375 -0.211,0.822 -0.238,0.814 -0.268,0.804 -0.295,0.795 -0.457,1.161 -0.554,1.642 -0.389,1.689 -0.225,1.718 -0.054,1.732 0.081,1.398 0.19,1.388 0.299,1.368 0.406,1.34 0.291,0.837 0.484,1.256 0.568,1.219 0.651,1.179 0.73,1.131 0.212,0.305 1.003,1.309 1.121,1.211 1.227,1.102 1.326,0.983 1.28,0.783 1.343,0.674 1.395,0.558 1.437,0.436 0.552,0.143 1.354,0.297 1.374,0.194 1.384,0.093 1.386,-0.011 1.775,-0.168 1.751,-0.335 1.71,-0.501 1.655,-0.664 1.092,-0.5 0.687,-0.334 0.672,-0.366 0.651,-0.396 0.635,-0.427 1.926,-1.363 1.063,-0.643 1.148,-0.481 1.204,-0.307 1.237,-0.131 1.587,0.099 1.54,0.392 1.442,0.672 1.29,0.927 1.652,1.439 0.204,0.183 0.203,0.186 0.199,0.19 0.193,0.195 1.189,1.212 1.485,1.439 1.551,1.365 1.618,1.288 1.677,1.207 0.96,0.655 0.464,0.327 0.455,0.34 0.447,0.351 0.436,0.363 1.769,1.512 1.036,1.005 0.904,1.124 0.76,1.228 0.603,1.311 0.455,1.461 0.263,1.506 0.064,1.53 -0.138,1.524 -0.184,1.175 -0.183,0.974 -0.244,0.964 -0.302,0.944 -0.359,0.925 -0.857,2.02 -0.465,1.028 -0.512,1.006 -0.559,0.981 -0.601,0.954 -0.763,1.149 -0.8,1.104 -0.891,1.031 -0.972,0.956 -1.049,0.868 -0.316,0.242 -1.298,0.88 -1.387,0.735 -1.457,0.583 -1.513,0.42 -1.478,0.247 -1.496,0.094 -1.498,-0.062 -1.483,-0.217 -1.394,-0.277 -0.948,-0.211 -0.938,-0.254 -0.925,-0.298 -0.911,-0.338 -2.985,-1.189 -0.601,-0.237 -0.606,-0.229 -0.609,-0.221 -0.61,-0.217 -2.512,-0.869 -1.161,-0.376 -1.176,-0.325 -1.188,-0.276 -1.199,-0.227 -2.144,-0.359 -0.891,-0.181 -0.879,-0.242 -0.858,-0.301 -0.878,-0.378 -1.814,-1.026 -1.593,-1.271 -1.379,-1.505 -1.126,-1.698 -0.475,-0.941 -0.397,-0.978 -0.318,-1.005 -0.235,-1.03 -0.629,-3.367 -0.086,-0.444 -0.093,-0.444 -0.096,-0.443 -0.104,-0.441 -0.601,-2.479 -0.389,-1.429 -0.469,-1.408 -0.545,-1.379 -0.622,-1.346 -0.808,-1.504 -0.901,-1.449 -0.992,-1.386 -1.08,-1.322 -0.742,-0.852 -0.625,-0.696 -0.642,-0.681 -0.661,-0.663 -0.675,-0.645 -0.699,-0.648 -1.306,-1.254 -1.264,-1.298 -1.217,-1.339 -1.173,-1.38 -0.796,-0.971 -0.487,-0.603 -0.477,-0.613 -0.467,-0.62 -0.456,-0.628 -1.458,-1.933 -1.558,-1.854 -1.653,-1.77 -1.743,-1.681 -1.114,-1.017 -0.107,-0.099 -2.346,-2.128 -1.158,-1.103 -1.1,-1.16 -1.041,-1.212 -0.98,-1.263 -0.919,-1.316 -0.853,-1.364 -0.783,-1.402 -0.714,-1.441 -1.191,-2.569 -0.083,-0.182 -0.084,-0.182 -0.083,-0.182 -0.082,-0.184 -1.257,-2.812 -0.636,-1.331 -0.706,-1.295 -0.772,-1.258 -0.837,-1.214 -1.564,-2.15 -0.25,-0.322 -0.27,-0.307 -0.286,-0.289 -0.307,-0.271 -2.078,-1.74 -0.969,-0.566 -1.104,-0.207 -1.109,0.171 -0.988,0.53 -0.843,0.975 -0.407,1.223 0.088,1.285 0.572,1.155 1.713,2.228 0.106,0.134 0.109,0.132 0.114,0.128 0.117,0.124 0.781,0.81 1.599,1.822 1.425,1.963 1.239,2.084 1.042,2.189 0.26,0.621 0.174,0.404 0.179,0.401 0.186,0.4 0.191,0.395 0.678,1.38 0.929,1.772 1.023,1.72 1.112,1.663 1.199,1.601 0.769,0.942 0.799,0.915 0.827,0.889 0.856,0.861 2.489,2.428 0.196,0.191 0.198,0.19 0.197,0.19 0.199,0.188 1.401,1.321 1.409,1.391 1.346,1.45 1.28,1.508 1.212,1.565 0.724,1.006 0.697,1.027 0.667,1.044 0.638,1.064 1.415,2.434 0.289,0.504 0.284,0.506 0.281,0.509 0.275,0.511 1.63,3.065 0.408,0.81 0.375,0.827 0.338,0.843 0.301,0.856 0.519,1.588 0.372,1.375 0.223,1.405 0.073,1.423 -0.08,1.421 -0.283,1.641 -0.485,1.593 -0.679,1.52 -0.862,1.424 -1.27,1.829 -0.232,0.344 -0.225,0.345 -0.219,0.35 -0.214,0.353 -2.236,3.799 -0.321,0.516 -0.346,0.501 -0.368,0.484 -0.392,0.465 -0.729,0.822 -1.381,1.289 -1.599,1.005 -1.761,0.682 -1.858,0.336 -1.193,0.028 -1.188,-0.116 -1.164,-0.256 -1.127,-0.394 -1.156,-0.486 -1.227,-0.582 -1.168,-0.691 -1.102,-0.791 -1.025,-0.89 -0.362,-0.343 -1.096,-1.138 -0.991,-1.229 -0.877,-1.314 -0.758,-1.385 -0.416,-0.849 -0.48,-1.048 -0.428,-1.071 -0.374,-1.089 -0.318,-1.107 -0.77,-2.956 -0.142,-0.529 -0.146,-0.527 -0.151,-0.525 -0.157,-0.524 -0.686,-2.252 -0.468,-1.424 -0.527,-1.406 -0.585,-1.382 -0.642,-1.355 -0.549,-1.097 -0.518,-0.978 -0.564,-0.953 -0.61,-0.924 -0.654,-0.894 -1.142,-1.487 -0.748,-0.886 -0.824,-0.815 -0.893,-0.739 -0.959,-0.653 -1.759,-0.91 -1.878,-0.628 -1.953,-0.332 -1.981,-0.027 -1.897,0.119 -0.232,0.016 -0.23,0.02 -0.229,0.022 -0.23,0.024 -1.835,0.208 -2.06,0.182 -2.068,0.086 -2.069,-0.016 -2.067,-0.111 -1.144,-0.105 -1.141,-0.135 -1.137,-0.166 -1.133,-0.194 -2.366,-0.441 -0.858,-0.165 -0.856,-0.181 -0.854,-0.189 -0.851,-0.204 -3.228,-0.795 -0.675,-0.152 -0.678,-0.126 -0.683,-0.1 -0.688,-0.075 -1.464,-0.126 -1.742,-0.032 -1.731,0.207 -1.687,0.442 -1.61,0.671 -1.12,0.632 -1.052,0.743 -0.969,0.847 -0.882,0.94 -0.723,0.857 -0.813,1.035 -0.734,1.092 -0.654,1.142 -0.569,1.186 -0.311,0.712 -0.54,1.376 -0.436,1.412 -0.331,1.441 -0.224,1.461 -0.067,0.579 -0.1,1.396 0.018,1.398 0.134,1.392 0.253,1.376 0.14,0.611 0.392,1.376 0.534,1.327 0.668,1.264 0.801,1.186 1.07,1.256 1.215,1.117 1.342,0.96 1.462,0.799 1.31,0.535 1.341,0.395 1.376,0.256 1.396,0.115 2.031,0.063 0.749,0.011 0.752,-0.013 0.75,-0.036 0.748,-0.061 2.742,-0.267 1.091,-0.083 1.096,-0.038 1.094,0.008 1.095,0.054 1.605,0.109 1.277,0.141 1.262,0.24 1.24,0.337 1.21,0.436 1.129,0.455 1.126,0.533 1.058,0.655 0.977,0.771 0.884,0.876 0.475,0.528 0.86,1.122 0.671,1.244 0.463,1.337 0.246,1.391 0.013,1.517 -0.247,1.496 -0.496,1.431 -0.733,1.327 -0.643,0.957 -0.591,0.806 -0.654,0.755 -0.715,0.697 -0.771,0.636 -1.762,1.338 -0.867,0.688 -0.836,0.725 -0.802,0.761 -0.77,0.795 -0.295,0.317 -1.23,1.414 -1.139,1.485 -1.046,1.554 -0.949,1.614 -1.292,2.365 -1.755,3.23 -0.695,1.184 -0.768,1.134 -0.842,1.084 -0.91,1.025 -1.3,1.258 -1.405,1.142 -1.495,1.016 -1.579,0.885 -0.215,0.11 -1.148,0.539 -1.176,0.474 -1.2,0.407 -1.223,0.339 -0.631,0.155 -1.574,0.326 -1.593,0.211 -1.604,0.089 -1.607,-0.029 -1.584,-0.145 -1.568,-0.262 -1.544,-0.377 -1.514,-0.489 -0.39,-0.141 -1.338,-0.445 -1.361,-0.366 -1.382,-0.287 -1.396,-0.207 -2.035,-0.242 -0.782,-0.08 -0.785,-0.059 -0.786,-0.037 -0.786,-0.012 -2.452,-0.003 -1.2,0.052 -1.189,0.159 -1.171,0.265 -1.143,0.368 -1.772,0.813 -1.636,1.06 -1.464,1.288 -1.262,1.485 -0.214,0.294 -0.58,0.853 -0.515,0.893 -0.455,0.928 -0.385,0.956 -1.308,3.595 -0.095,0.262 -0.092,0.263 -0.091,0.263 -0.09,0.265 -1.711,5.136 -0.076,0.232 -0.075,0.233 -0.071,0.233 -0.069,0.234 -0.343,1.187 -0.777,2.186 -1.039,2.075 -1.282,1.934 -1.507,1.765 -0.608,0.601 -0.635,0.575 -0.661,0.546 -0.682,0.516 -2.631,1.892 -0.591,0.451 -0.564,0.482 -0.536,0.516 -0.505,0.545 -0.563,0.639 -1.145,1.572 -0.846,1.75 -0.518,1.871 -0.176,1.936 0.054,1.063 0.155,1.052 0.259,1.03 0.358,1.002 1.599,3.85 0.058,0.142 1.645,4.055 0.338,0.943 0.259,0.969 0.179,0.983 0.098,0.998 0.084,1.487 -0.042,1.392 -0.282,1.365 -0.512,1.295 -0.729,1.187 -0.194,0.263 -0.975,1.076 -1.17,0.862 -1.316,0.611 -1.413,0.337 -1.492,0.049 -1.469,-0.258 -1.386,-0.553 -1.245,-0.821 -0.222,-0.183 -0.937,-0.909 -0.778,-1.051 -0.595,-1.162 -0.394,-1.246 -0.412,-1.8 -0.168,-0.873 -0.112,-0.883 -0.052,-0.889 0.008,-0.89 0.104,-2.466 0.065,-1.093 0.104,-1.088 0.139,-1.085 0.179,-1.08 0.588,-3.225 0.085,-0.488 0.083,-0.486 0.078,-0.489 0.073,-0.488 0.429,-2.942 0.21,-1.226 0.269,-1.215 0.33,-1.2 0.385,-1.183 0.726,-1.823 0.863,-1.761 0.997,-1.69 1.123,-1.607 0.874,-1.155 0.323,-0.419 0.327,-0.413 0.335,-0.409 0.342,-0.403 3.324,-3.878 0.145,-0.165 0.196,-0.217 1.646,-1.78 1.057,-1.379 0.782,-1.552 0.48,-1.67 0.161,-1.73 0.089,-1.302 0.271,-1.274 0.447,-1.226 0.613,-1.151 0.932,-1.486 0.562,-0.835 0.616,-0.796 0.668,-0.754 0.714,-0.709 1.842,-1.715 0.681,-0.664 0.646,-0.699 0.61,-0.731 0.572,-0.758 0.514,-0.718 1.122,-1.389 1.276,-1.248 1.413,-1.092 1.532,-0.916 1.249,-0.581 1.294,-0.467 1.333,-0.347 1.358,-0.227 3.438,-0.412 0.159,-0.019 0.21,-0.023 3.128,-0.338 1.56,-0.127 1.566,-0.045 1.564,0.035 1.562,0.119 0.611,0.062 1.326,0.171 1.315,0.244 1.3,0.314 1.281,0.386 1.454,0.482 1.061,0.307 1.08,0.226 1.096,0.141 1.103,0.059 1,0.015 1.552,-0.086 1.522,-0.304 1.466,-0.512 1.379,-0.715 0.24,-0.147 1.179,-0.842 1.048,-1.005 0.891,-1.143 0.719,-1.258 0.427,-0.896 0.425,-1.113 0.236,-1.169 0.038,-1.192 -0.16,-1.181 -0.177,-0.804 -0.472,-1.331 -0.785,-1.173 -1.052,-0.944 -1.251,-0.655 -1.373,-0.327 -1.413,0.022 -1.364,0.368 -1.23,0.695 -2.234,1.657 -0.204,0.147 -0.207,0.143 -0.21,0.138 -0.213,0.133 -0.649,0.394 -2.257,1.224 -2.359,1.006 -2.445,0.778 -2.509,0.545 -1.053,0.175 -0.13,0.022 -0.172,0.028 -5.819,0.91 -0.217,0.033 -0.218,0.031 -0.218,0.028 -0.218,0.028 -2.69,0.314 -1.614,0.082 -1.614,-0.127 -1.584,-0.336 -1.525,-0.537 -1.364,-0.687 -1.269,-0.846 -1.158,-0.997 -1.025,-1.131 -0.718,-0.897 -0.645,-0.859 -0.589,-0.898 -0.533,-0.933 -0.472,-0.967 -0.709,-1.572 -0.501,-1.179 -0.45,-1.198 -0.401,-1.217 -0.35,-1.232 -0.177,-0.676 -0.367,-1.548 -0.299,-1.564 -0.228,-1.575 -0.158,-1.583 -0.088,-1.626 -0.013,-1.629 0.063,-1.627 0.135,-1.622 0.073,-0.681 0.15,-1.244 0.187,-1.24 0.223,-1.233 0.261,-1.226 0.438,-1.937 0.226,-0.955 0.244,-0.951 0.262,-0.946 0.28,-0.941 0.726,-2.354 0.321,-0.962 0.361,-0.947 0.401,-0.93 0.444,-0.912 0.752,-1.469 0.682,-1.191 0.79,-1.12 0.891,-1.041 0.985,-0.954 1.426,-1.104 1.55,-0.921 1.652,-0.724 1.729,-0.513 0.703,-0.162 0.998,-0.201 1.007,-0.141 1.014,-0.083 1.019,-0.022 2.055,0.013 1.169,-0.033 1.166,-0.11 1.155,-0.189 1.141,-0.264 0.731,-0.196 1.556,-0.516 1.489,-0.693 1.396,-0.858 1.29,-1.014 1.085,-1.069 0.964,-1.178 0.833,-1.274 0.691,-1.357 0.329,-0.741 0.47,-1.168 0.387,-1.198 0.303,-1.222 0.216,-1.239 0.535,-3.88 0.864,-6.29 0.022,-0.185 0.461,-4.152 -0.017,-1.003 -0.269,-0.97 -0.506,-0.867 -0.706,-0.714 -1.349,-0.687 -1.509,-0.129 -1.446,0.447 -1.173,0.958 -0.205,0.246 -0.524,0.797 -0.336,0.894 -0.129,0.946 0.083,0.952 0.639,3.166 0.079,0.561 0.008,0.565 -0.061,0.564 -0.129,0.551 -0.761,1.485 -1.238,1.117 -1.555,0.606 -1.668,0.013 -1.811,-0.318 -0.179,-0.035 -0.239,-0.053 -2.54,-0.64 -1.655,-0.359 -1.675,-0.25 -1.689,-0.138 -1.693,-0.028 -1.517,-0.019 -1.514,-0.11 -1.504,-0.196 -1.489,-0.287 -3.222,-0.718 -4.327,-0.995 -0.904,-0.105 -0.905,0.096 -0.86,0.291 -0.777,0.474 -0.917,0.99 -0.549,1.234 -0.12,1.346 0.322,1.311 0.763,1.78 0.143,0.312 0.16,0.304 0.175,0.295 0.188,0.285 1.563,2.227 0.793,1.271 0.651,1.35 0.5,1.413 0.353,1.503 0.195,1.584 0.006,1.553 -0.174,1.545 -0.348,1.514 -0.088,0.297 -0.476,1.335 -0.628,1.267 -0.771,1.187 -0.905,1.089 -1.236,1.15 -1.384,0.967 -1.505,0.767 -1.594,0.55 -0.271,0.072 -1.233,0.269 -1.253,0.148 -1.262,0.027 -1.258,-0.094 -3.594,-0.444 -0.166,-0.019 -0.221,-0.026 -2.664,-0.291 -1.791,-0.152 -1.798,-0.066 -1.798,0.021 -1.796,0.107 -1.403,0.145 -1.398,0.198 -1.39,0.25 -1.379,0.304 -1.932,0.461 -0.793,0.196 -0.791,0.206 -0.788,0.218 -0.785,0.228 -2.731,0.816 -0.949,0.263 -0.96,0.223 -0.968,0.185 -0.974,0.145 -0.244,0.031 -2.078,0.173 -2.085,-0.017 -2.075,-0.206 -2.049,-0.393 -1.04,-0.276 -1.026,-0.322 -1.011,-0.372 -0.991,-0.419 -2.511,-1.128 -0.705,-0.311 -0.707,-0.3 -0.714,-0.289 -0.715,-0.279 -4.067,-1.548 -0.265,-0.1 -0.263,-0.099 -0.264,-0.098 -0.265,-0.097 -1.852,-0.677 -1.828,-0.705 -1.803,-0.765 -1.777,-0.826 -1.749,-0.884 -1.108,-0.6 -1.094,-0.622 -1.081,-0.647 -1.067,-0.67 -0.617,-0.397 -1.356,-0.851 -1.373,-0.824 -1.39,-0.793 -1.407,-0.764 -2.342,-1.238 -0.265,-0.141 -0.262,-0.143 -0.262,-0.145 -0.26,-0.145 -2.295,-1.296 -1.366,-0.837 -1.307,-0.926 -1.241,-1.013 -1.17,-1.096 -1.073,-1.152 -0.994,-1.222 -0.911,-1.287 -0.822,-1.342 -1.342,-2.365 -0.131,-0.231 -0.134,-0.229 -0.138,-0.228 -0.137,-0.228 -1.297,-2.106 -0.961,-1.4 -1.095,-1.299 -1.219,-1.182 -1.33,-1.058 -1.189,-0.779 -1.25,-0.679 -1.302,-0.572 -1.345,-0.461 -2.837,-0.844 -0.279,-0.083 -0.278,-0.079 -0.28,-0.077 -0.28,-0.073 -2.689,-0.705 -1.495,-0.406 -1.486,-0.434 -1.478,-0.464 -1.467,-0.491 -1.534,-0.53 -0.817,-0.293 -0.809,-0.308 -0.803,-0.324 -0.797,-0.342 -1.329,-0.588 -1.469,-0.699 -1.428,-0.781 -1.381,-0.86 -1.331,-0.938 -1.225,-0.967 -1.171,-1.034 -1.114,-1.096 -1.052,-1.153 -0.629,-0.729 -0.75,-0.896 -0.721,-0.917 -0.692,-0.94 -0.663,-0.961 -0.213,-0.319 -0.993,-1.573 -0.914,-1.62 -0.832,-1.663 -0.747,-1.702 -0.636,-1.555 -0.199,-0.462 -0.214,-0.453 -0.231,-0.445 -0.247,-0.436 -1.353,-2.297 -0.757,-1.048 -0.937,-0.893 -1.083,-0.706 -1.194,-0.495 -1.444,-0.288 -1.474,0.022 -1.436,0.326 -1.338,0.621 -0.222,0.134 -0.993,0.706 -0.864,0.855 -0.719,0.983 -0.552,1.085 -0.498,1.208 -0.367,1.12 -0.2,1.16 -0.025,1.178 0.146,1.169 0.53,1.665 0.881,1.51 1.187,1.284 1.437,0.993 0.708,0.384 0.543,0.271 0.559,0.237 0.573,0.203 0.585,0.167 0.838,0.209 2.03,0.649 1.93,0.905 1.797,1.143 1.637,1.366 0.172,0.164 0.561,0.557 0.534,0.582 0.508,0.606 0.481,0.626 1.033,1.417 0.958,1.218 1.041,1.15 1.12,1.071 1.192,0.992 1.315,0.942 1.383,0.842 1.438,0.739 1.49,0.63 2.047,0.779 0.455,0.17 0.457,0.163 0.459,0.157 0.462,0.153 2.207,0.708 1.513,0.476 1.517,0.455 1.524,0.437 1.529,0.418 2.686,0.713 0.245,0.065 0.246,0.061 0.249,0.062 0.246,0.059 3.41,0.799 1.168,0.328 1.134,0.425 1.096,0.52 1.048,0.611 1.528,1.131 1.363,1.327 1.175,1.494 0.966,1.639 0.82,1.634 0.127,0.257 0.124,0.256 0.118,0.259 0.116,0.26 0.71,1.628 0.91,1.805 1.105,1.691 1.286,1.556 1.454,1.403 0.851,0.692 0.892,0.638 0.929,0.582 0.964,0.527 3.565,1.809 0.161,0.083 0.216,0.11 1.411,0.733 2.067,1.102 2.042,1.146 2.017,1.191 1.99,1.235 0.441,0.28 0.528,0.331 0.529,0.328 0.533,0.323 0.536,0.32 0.849,0.5 1.834,1.041 1.869,0.978 1.903,0.912 1.931,0.846 1.028,0.421 1.036,0.399 1.043,0.383 1.048,0.364 1.84,0.616 1.087,0.371 1.083,0.382 1.081,0.394 1.076,0.404 3.774,1.438 0.186,0.07 3.533,1.363 1.217,0.44 1.235,0.386 1.251,0.332 1.262,0.277 0.428,0.084 1.671,0.273 1.684,0.164 1.691,0.056 1.69,-0.052 1.495,-0.138 1.483,-0.223 1.47,-0.306 1.448,-0.391 2.418,-0.724 0.428,-0.125 0.433,-0.119 0.433,-0.111 0.435,-0.104 2.515,-0.582 1.443,-0.259 1.461,-0.117 1.463,0.026 1.457,0.171 1.606,0.361 1.559,0.536 1.489,0.704 1.403,0.863 0.378,0.264 0.997,0.748 0.939,0.819 0.877,0.886 0.809,0.949 1.078,1.361 0.656,0.862 0.625,0.886 0.589,0.911 0.556,0.931 0.958,1.679 0.561,1.027 0.521,1.048 0.48,1.068 0.438,1.085 0.517,1.357 0.427,1.24 0.342,1.264 0.257,1.285 0.172,1.299 0.103,1.076 0.066,1.311 -0.059,1.31 -0.181,1.302 -0.303,1.277 -0.25,0.865 -0.453,1.265 -0.613,1.198 -0.76,1.107 -0.896,1.004 -0.127,0.125 -1.194,1.002 -1.338,0.805 -1.444,0.585 -1.557,0.357 -1.404,0.113 -1.368,-0.088 -1.341,-0.279 -1.288,-0.466 -0.268,-0.118 -1.288,-0.707 -1.153,-0.909 -0.987,-1.088 -0.794,-1.238 -0.563,-1.314 -0.344,-1.385 -0.116,-1.423 0.114,-1.424 0.262,-1.61 0.162,-0.832 0.212,-0.818 0.263,-0.806 0.313,-0.787 1.05,-2.425 0.35,-0.944 0.248,-0.977 0.142,-0.996 0.035,-1.007 -0.015,-0.841 -0.179,-1.498 -0.477,-1.431 -0.754,-1.308 -1.001,-1.127 -1.099,-0.838 -1.233,-0.621 -1.325,-0.383 -1.374,-0.133 -2.397,-0.011 -0.569,0.011 -0.569,0.032 -0.567,0.057 -0.563,0.081 -3.188,0.524 -1.031,0.156 -1.033,0.131 -1.037,0.106 -1.041,0.081 -0.879,0.058 -1.729,0.069 -1.729,-0.018 -1.726,-0.107 -1.718,-0.193 -1.463,-0.235 -1.451,-0.298 -1.438,-0.36 -1.42,-0.423 -1.402,-0.45 -0.954,-0.318 -0.947,-0.336 -0.941,-0.354 -0.933,-0.372 -2.863,-1.176 -0.627,-0.256 -0.629,-0.252 -0.629,-0.249 -0.63,-0.246 -3.29,-1.27 -0.736,-0.289 -0.733,-0.294 -0.73,-0.298 -0.728,-0.305 -2.231,-0.979 -2.205,-1.034 -2.18,-1.087 -2.152,-1.14 -0.193,-0.106 -0.598,-0.328 -0.594,-0.334 -0.594,-0.336 -0.591,-0.342 -4.323,-2.511 -0.105,-0.061 -4.598,-2.667 -0.487,-0.278 -0.49,-0.269 -0.496,-0.262 -0.498,-0.254 -1.129,-0.566 -1.819,-0.831 -1.874,-0.699 -1.921,-0.562 -1.954,-0.423 -1.187,-0.187 -1.195,-0.135 -1.198,-0.083 -1.201,-0.032 -2.091,-0.01 -0.98,0.004 -0.979,0.023 -0.978,0.042 -0.978,0.059 -1.683,0.118 -1.383,0.124 -1.379,0.178 -1.371,0.229 -1.36,0.282 -1.786,0.359 -1.8,0.269 -1.812,0.178 -1.82,0.088 -0.164,0.003 -1.309,0.006 -1.308,-0.038 -1.307,-0.082 -1.303,-0.13 -1.726,-0.199 -1.041,-0.102 -1.042,-0.063 -1.045,-0.024 -1.046,0.014 -1.276,0.04 -1.507,0.104 -1.494,0.22 -1.474,0.33 -1.445,0.442 -1.545,0.61 -1.492,0.736 -1.423,0.858 -1.393,1.009 -1.16,0.979 -1.047,1.021 -0.97,1.091 -0.892,1.158 -0.651,0.91 -0.671,0.98 -0.63,1.008 -0.587,1.031 -0.544,1.057 -1.223,2.502 -0.281,0.581 -0.274,0.585 -0.27,0.589 -0.261,0.591 -1.365,3.116 -0.36,0.804 -0.373,0.8 -0.385,0.795 -0.396,0.789 -1.055,2.056 -0.561,1.042 -0.604,1.02 -0.644,0.994 -0.683,0.966 -0.7398,1.003 -0.8657,1.094 -0.9388,1.031 -1.0075,0.965 -1.0721,0.893 -0.1979,0.154 -1.3466,0.956 -1.4269,0.835 -1.493,0.705 -1.55,0.575 -1.4623,0.405 -1.4908,0.287 -1.5102,0.166 -1.5172,0.044 -0.8931,-0.008 -1.2346,-0.045 -1.233,-0.108 -1.2246,-0.169 -1.2149,-0.232 -1.587,-0.344 -1.1443,-0.265 -1.1334,-0.298 -1.1248,-0.331 -1.1137,-0.364 -1.621,-0.555 -1.121,-0.408 -1.1042,-0.453 -1.0859,-0.495 -1.0656,-0.539 -1.0498,-0.555 -1.23,-0.705 -1.1805,-0.784 -1.1262,-0.86 -1.0671,-0.934 -0.2693,-0.252 -1.1088,-1.127 -1.0129,-1.214 -0.9096,-1.293 -0.8121,-1.386 -0.6925,-1.438 -0.5595,-1.465 -0.4357,-1.507 -0.3218,-1.61 -0.1852,-1.595 -0.047,-1.534 0.0851,-1.533 0.2158,-1.52 0.0408,-0.222 0.3439,-1.483 0.4778,-1.447 0.6081,-1.399 0.7535,-1.375 0.9154,-1.359 1.015,-1.227 1.1306,-1.122 1.2333,-1.007 1.3035,-0.869 1.3821,-0.742 1.4452,-0.606 1.4964,-0.463 0.2974,-0.077 1.4227,-0.306 1.4427,-0.192 1.4539,-0.072 1.4548,0.045 0.8264,0.06 1.3213,0.133 1.3116,0.209 1.2974,0.284 1.2786,0.36 2.6878,0.838 0.4675,0.143 0.4679,0.135 0.4709,0.128 0.4728,0.124 1.219,0.307 2.03,0.428 2.0568,0.271 2.0707,0.111 2.073,-0.049 1.1265,-0.092 1.1213,-0.142 1.1138,-0.188 1.1052,-0.235 1.8465,-0.432 1.1082,-0.282 1.0967,-0.323 1.084,-0.365 1.069,-0.405 0.984,-0.393 1.401,-0.617 1.357,-0.712 1.305,-0.8 1.248,-0.889 1.274,-1.049 1.194,-1.138 1.106,-1.224 1.016,-1.3 1.085,-1.502 0.386,-0.51 0.408,-0.491 0.43,-0.472 0.449,-0.453 0.76,-0.733 1.46,-1.188 1.637,-0.929 1.769,-0.644 1.853,-0.343 1.204,-0.055 1.201,0.074 1.189,0.202 1.16,0.326 3.72,1.265 0.097,0.033 1.796,0.623 2.149,0.708 2.17,0.639 2.189,0.573 2.205,0.503 1.345,0.286 0.272,0.056 0.273,0.053 0.273,0.049 0.275,0.045 4.102,0.646 0.811,0.071 0.813,-0.037 0.801,-0.147 0.773,-0.256 0.657,-0.264 1.307,-0.779 1.014,-1.137 0.626,-1.39 0.18,-1.512 -0.165,-1.116 -0.411,-1.052 -0.636,-0.931 -0.828,-0.768 -1.868,-1.372 -0.659,-0.445 -0.692,-0.39 -0.723,-0.332 -0.744,-0.272 -4.518,-1.445 -0.182,-0.059 -4.371,-1.438 -0.85,-0.266 -0.857,-0.24 -0.862,-0.218 -0.87,-0.192 -0.981,-0.203 -1.762,-0.295 -1.779,-0.166 -1.786,-0.036 -1.824,0.1 -1.397,0.165 -1.345,0.242 -1.33,0.318 -1.309,0.394 -0.431,0.143 -1.491,0.562 -1.444,0.672 -1.386,0.783 -1.323,0.886 -1.221,0.96 -1.145,1.05 -1.066,1.131 -0.975,1.207 -1.473,1.97 -0.261,0.342 -0.265,0.34 -0.272,0.338 -0.277,0.331 -1.384,1.639 -1.127,1.216 -1.236,1.106 -1.334,0.985 -1.419,0.858 -1.329,0.652 -1.378,0.538 -1.416,0.423 -1.4479,0.304 -1.1559,0.192 -1.1207,0.161 -1.1285,0.11 -1.1306,0.057 -1.1339,0.006 -1.3405,-0.022 -1.4081,-0.063 -1.4032,-0.138 -1.3934,-0.213 -1.3801,-0.286 -1.7016,-0.464 -1.6653,-0.578 -1.6219,-0.686 -1.5736,-0.794 -0.7953,-0.436 -0.8643,-0.492 -0.8491,-0.515 -0.8319,-0.543 -0.8167,-0.565 -1.8838,-1.352 -0.8683,-0.632 -0.8591,-0.646 -0.8486,-0.659 -0.8395,-0.672 -1.4294,-1.16 -0.9533,-0.783 -0.946,-0.791 -0.9387,-0.8 -0.9314,-0.808 -1.7851,-1.566 -0.6087,-0.535 -0.6054,-0.535 -0.6045,-0.539 -0.6022,-0.54 -1.7615,-1.582 -0.9159,-0.831 -0.9105,-0.838 -0.9027,-0.845 -0.8962,-0.853 -1.1692,-1.123 -0.848,-0.823 -0.8358,-0.836 -0.8252,-0.845 -0.8146,-0.856 -1.079,-1.149 -0.8495,-0.927 -0.8297,-0.945 -0.8064,-0.965 -0.7858,-0.982 -0.7129,-0.911 -0.832,-1.108 -0.7941,-1.134 -0.7523,-1.163 -0.7119,-1.188 -0.403,-0.701 -0.6799,-1.252 -0.6218,-1.281 -0.5615,-1.308 -0.4992,-1.334 -0.2255,-0.647 -0.432,-1.371 -0.3525,-1.392 -0.2709,-1.41 -0.1876,-1.424 -0.0573,-0.56 -0.0978,-1.469 0.0064,-1.473 0.1114,-1.468 0.2152,-1.457 0.0619,-0.337 0.3384,-1.492 0.4599,-1.46 0.5779,-1.418 0.6912,-1.364 0.111,-0.198 0.8009,-1.295 0.9118,-1.221 1.016,-1.137 1.1625,-1.087 1.2878,-1.009 1.322,-0.846 1.3958,-0.717 1.4572,-0.583 0.1848,-0.064 1.4356,-0.422 1.4686,-0.282 1.4896,-0.142 1.4963,0.002 0.3732,0.019 1.4698,0.15 1.4465,0.304 1.4047,0.457 1.3932,0.625 1.4407,0.849 1.2887,0.987 1.1616,1.133 1.0169,1.266 0.8152,1.3 0.6632,1.383 0.5017,1.451 0.3346,1.497 0.0705,0.434 0.167,1.42 0.0337,1.43 -0.0984,1.426 -0.2309,1.412 -0.3866,1.833 -0.1887,0.824 -0.2162,0.817 -0.2421,0.809 -0.2691,0.8 -0.9372,2.639 -0.3183,0.93 -0.2973,0.938 -0.2764,0.944 -0.2535,0.949 -0.3932,1.538 -0.322,1.411 -0.2486,1.426 -0.174,1.437 -0.0997,1.444 -0.0238,0.558 -0.0167,1.489 0.0769,1.487 0.1707,1.48 0.2641,1.466 0.419,1.666 0.5393,1.632 0.6571,1.588 0.7886,1.569 0.7539,1.283 0.8089,1.202 0.8782,1.152 0.9467,1.096 0.4414,0.482 0.9978,1.036 1.0475,0.987 1.0946,0.933 1.1382,0.879 0.2007,0.148 1.3569,0.943 1.4038,0.873 1.4455,0.798 1.4863,0.724 0.4093,0.187 1.2287,0.528 1.252,0.479 1.2693,0.425 1.2865,0.372 1.5541,0.416 1.0464,0.246 1.0585,0.186 1.0669,0.124 1.0743,0.062 2.1788,0.061 1.0322,-0.028 1.0232,-0.148 0.9985,-0.262 0.9626,-0.374 0.9426,-0.429 1.304,-0.779 1.1,-1.045 0.846,-1.261 0.548,-1.415 0.221,-1.398 -0.071,-1.412 -0.359,-1.37 -0.631,-1.266 -1.519,-2.396 -0.119,-0.194 -0.118,-0.197 -0.114,-0.197 -0.112,-0.202 -0.91,-1.681 -0.9061,-1.816 -0.7801,-1.874 -0.6512,-1.923 -0.5182,-1.963 -0.2391,-1.151 -0.1929,-1.16 -0.1475,-1.167 -0.1022,-1.172 -0.0855,-1.273 -0.0729,-1.408 -0.0282,-1.409 0.0132,-1.407 0.0567,-1.409 0.0515,-0.943 0.091,-1.342 0.1188,-1.34 0.1477,-1.336 0.1767,-1.333 0.4938,-3.427 0.0323,-0.226 0.0394,-0.305 0.0872,-0.701 0.1953,-2.716 -0.0803,-2.721 -0.3584,-2.699 -0.627,-2.649 -0.1311,-0.434 -0.1377,-0.431 -0.1451,-0.429 -0.152,-0.426 -0.9161,-2.5 -0.4842,-1.361 -0.4562,-1.372 -0.4289,-1.381 -0.4011,-1.389 -0.4087,-1.467 -0.2609,-0.987 -0.2371,-0.993 -0.213,-0.997 -0.1874,-1.004 -0.1003,-0.573 -0.2777,-1.889 -0.1779,-1.9 -0.0763,-1.908 0.0251,-1.909 0.0205,-0.518 0.0612,-1.045 0.0984,-1.042 0.136,-1.037 0.1732,-1.032 0.0529,-0.281 0.4458,-1.97 0.5923,-1.932 0.7349,-1.882 0.8738,-1.821 0.5703,-1.026 0.6128,-0.999 0.6567,-0.973 0.6978,-0.942 0.3061,-0.396 1.0581,-1.446 0.9771,-1.501 0.8947,-1.555 0.806,-1.599 0.527,-1.12 0.332,-0.724 0.319,-0.729 0.306,-0.734 0.292,-0.74 0.912,-2.369 0.438,-1.076 0.48,-1.059 0.523,-1.039 0.563,-1.018 0.121,-0.21 1.021,-1.63 1.129,-1.555 1.236,-1.474 1.335,-1.386 0.934,-0.864 0.973,-0.82 1.009,-0.775 1.043,-0.728 1.715,-1.139 0.77,-0.501 0.778,-0.487 0.787,-0.472 0.796,-0.458 1.241,-0.7 1.406,-0.749 1.44,-0.687 1.469,-0.618 1.496,-0.55 1.539,-0.487 1.561,-0.415 1.578,-0.342 1.594,-0.269 1.585,-0.192 1.593,-0.12 1.596,-0.045 1.597,0.027 2.234,0.088 0.501,0.018 0.502,0.012 0.501,0.006 h 0.502 l 1.557,-0.007 1.936,-0.067 1.928,-0.184 1.914,-0.3 1.893,-0.415 1.215,-0.33 1.201,-0.379 1.185,-0.424 1.167,-0.47 1.475,-0.628 1.075,-0.442 1.085,-0.415 1.096,-0.387 1.105,-0.36 0.379,-0.118 1.783,-0.511 1.805,-0.433 1.821,-0.35 1.836,-0.27 1.351,-0.144 1.354,-0.102 1.355,-0.056 1.36,-0.012 1.037,0.008 1.347,0.025 1.345,0.056 1.342,0.089 1.341,0.12 1.059,0.107 1.337,0.157 1.332,0.198 1.324,0.242 1.316,0.282 0.613,0.143 1.508,0.385 1.491,0.452 1.467,0.516 1.444,0.581 1.503,0.685 1.47,0.756 1.433,0.823 1.392,0.89 0.143,0.095 1.204,0.846 1.17,0.892 1.133,0.938 1.096,0.983 0.796,0.74 0.869,0.833 0.85,0.849 0.829,0.873 0.809,0.891 2.104,2.372 0.29,0.329 0.289,0.33 0.288,0.332 0.288,0.331 0.773,0.899 1.442,1.66 1.46,1.643 1.478,1.627 1.495,1.609 0.569,0.606 0.423,0.447 0.423,0.446 0.426,0.442 0.429,0.442 2.487,2.542 0.579,0.604 0.564,0.618 0.552,0.628 0.538,0.642 1.669,2.032 0.65,0.842 0.595,0.88 0.542,0.915 0.484,0.948 0.901,1.903 0.388,0.966 0.272,1.007 0.147,1.031 0.024,1.043 -0.052,1.434 -0.175,1.193 -0.426,1.127 -0.657,1.01 -0.86,0.846 -1.076,0.67 -1.199,0.41 -1.261,0.129 -1.258,-0.158 -2.119,-0.516 -0.651,-0.181 -0.638,-0.225 -0.621,-0.267 -0.602,-0.309 -2.78,-1.545 -0.845,-0.454 -0.856,-0.43 -0.868,-0.404 -0.88,-0.381 -0.981,-0.406 -1.596,-0.604 -1.632,-0.502 -1.659,-0.399 -1.682,-0.294 -1.47,-0.167 -1.478,-0.087 -1.479,-0.006 -1.477,0.074 -0.925,0.072 -1.265,0.121 -1.258,0.166 -1.252,0.211 -1.243,0.256 -1.134,0.254 -1.327,0.327 -1.312,0.384 -1.294,0.442 -1.329,0.518 -1.671,0.745 -1.573,0.816 -1.523,0.906 -1.469,0.99 -1.139,0.857 -1.099,0.911 -1.056,0.958 -1.01,1.008 -0.977,1.02 -0.742,0.795 -0.724,0.812 -0.705,0.829 -0.686,0.846 -1.131,1.432 -0.749,0.971 -0.727,0.987 -0.703,1.003 -0.679,1.021 -0.467,0.717 -0.829,1.329 -0.777,1.359 -0.725,1.386 -0.673,1.414 -0.649,1.514 -0.591,1.54 -0.527,1.561 -0.467,1.581 -0.121,0.446 -0.334,1.298 -0.298,1.306 -0.261,1.315 -0.223,1.321 -0.53,3.427 -0.033,0.227 -0.045,0.305 -0.59,4.149 -0.171,0.991 -0.23,0.977 -0.291,0.962 -0.346,0.943 -0.525,1.299 -0.614,1.28 -0.77,1.192 -0.917,1.085 -1.046,0.96 -1.356,0.939 -1.48,0.728 -1.57,0.503 -1.642,0.267 -1.453,0.037 -1.434,-0.15 -1.404,-0.331 -1.349,-0.508 -1.4,-0.632 -0.877,-0.427 -0.852,-0.475 -0.824,-0.526 -0.793,-0.569 -0.821,-0.626 -1.327,-1.085 -1.254,-1.169 -1.174,-1.25 -1.09,-1.325 -0.876,-1.206 -0.804,-1.255 -0.733,-1.298 -0.656,-1.337 -1.311,-2.873 -0.096,-0.21 -0.131,-0.279 -1.344,-2.827 -0.601,-1.403 -0.488,-1.445 -0.376,-1.48 -0.259,-1.503 -0.148,-1.657 -0.005,-1.664 0.134,-1.659 0.276,-1.642 0.279,-1.313 0.196,-0.853 0.223,-0.848 0.25,-0.838 0.276,-0.832 0.675,-1.926 0.466,-1.245 0.515,-1.226 0.565,-1.202 0.613,-1.178 0.354,-0.647 0.769,-1.314 0.843,-1.268 0.916,-1.217 0.983,-1.162 1.17,-1.221 1.245,-1.145 1.316,-1.059 1.382,-0.975 0.394,-0.259 1.092,-0.686 1.121,-0.637 1.147,-0.589 1.171,-0.539 1.855,-0.806 0.851,-0.36 0.857,-0.347 0.862,-0.331 0.869,-0.316 3.006,-1.065 0.669,-0.242 0.664,-0.25 0.662,-0.26 0.658,-0.268 2.289,-0.95 1.167,-0.517 1.142,-0.57 1.113,-0.623 1.084,-0.674 1.02,-0.668 1.083,-0.766 1.025,-0.84 0.964,-0.91 0.899,-0.976 0.614,-0.719 0.85,-1.097 0.737,-1.176 0.618,-1.242 0.492,-1.298 0.21,-0.651 0.35,-1.365 0.179,-1.398 0.003,-1.408 -0.171,-1.4 -0.053,-0.283 -0.387,-1.47 -0.596,-1.396 -0.794,-1.295 -0.973,-1.165 -1.113,-0.995 -1.243,-0.827 -1.35,-0.639 -1.426,-0.439 -0.937,-0.215 -1.07,-0.202 -1.084,-0.117 -1.09,-0.029 -1.088,0.057 -3.403,0.318 -0.404,0.035 -0.404,0.031 -0.404,0.026 -0.405,0.02 -2.228,0.105 -1.693,0.056 -1.695,0.013 -1.695,-0.032 -1.693,-0.076 -0.53,-0.03 -1.265,-0.058 -1.266,-0.029 -1.267,10e-4 -1.266,0.032 -1.798,0.065 -1.047,0.057 -1.043,0.094 -1.041,0.134 -1.034,0.17 -1.907,0.35 -1.167,0.259 -1.145,0.345 -1.115,0.43 -1.081,0.512 -1.648,0.986 -1.52,1.178 -1.367,1.35 -1.196,1.504 -0.231,0.329 -0.53,0.801 -0.484,0.826 -0.44,0.853 -0.394,0.875 -0.764,1.834 -0.517,1.158 -0.574,1.133 -0.63,1.103 -0.684,1.07 -1.115,1.529 -1.225,1.443 -1.328,1.348 -1.424,1.247 -1.138,0.924 -0.434,0.359 -0.429,0.366 -0.423,0.372 -0.417,0.379 -1.463,1.352 -1.159,1.13 -1.098,1.193 -1.032,1.25 -0.961,1.304 -0.876,1.329 -0.803,1.374 -0.728,1.413 -0.653,1.452 -0.505,1.206 -0.3396,0.876 -0.2934,0.892 -0.2474,0.908 -0.1993,0.918 -0.3901,2.058 -0.1516,1.198 -0.0023,1.207 0.1482,1.197 0.2935,1.171 0.637,1.535 0.889,1.403 1.115,1.233 1.308,1.025 0.908,0.594 0.697,0.425 0.722,0.38 0.745,0.332 0.764,0.285 2.695,0.907 0.926,0.332 0.912,0.369 0.896,0.404 0.88,0.44 0.516,0.272 1.647,0.962 1.557,1.105 1.451,1.238 1.334,1.364 0.78,0.922 0.727,0.964 0.67,1.002 0.614,1.04 1.233,2.229 0.354,0.654 0.343,0.661 0.332,0.664 0.321,0.673 1.698,3.635 0.2,0.422 0.205,0.419 0.207,0.419 0.214,0.416 0.922,1.78 0.835,1.502 0.92,1.451 1.007,1.394 1.085,1.333 1,1.099 1.054,1.045 1.107,0.992 1.155,0.934 0.49,0.375 1.132,0.834 1.163,0.786 1.194,0.74 1.224,0.691 1.553,0.838 0.831,0.428 0.851,0.392 0.866,0.358 0.878,0.32 1.659,0.565 1.314,0.377 1.347,0.245 1.364,0.11 1.367,-0.025 1.669,-0.216 1.632,-0.419 1.568,-0.613 1.482,-0.801 0.235,-0.145 1.063,-0.727 0.998,-0.818 0.923,-0.899 0.843,-0.975 0.701,-0.889 0.793,-1.069 0.723,-1.116 0.654,-1.159 0.579,-1.196 0.295,-0.661 0.575,-1.386 0.496,-1.417 0.419,-1.442 0.336,-1.462 0.333,-1.646 0.163,-0.856 0.146,-0.857 0.128,-0.861 0.11,-0.863 0.278,-2.364 0.154,-1.155 0.188,-1.152 0.224,-1.143 0.258,-1.138 0.149,-0.608 0.452,-1.665 0.541,-1.639 0.625,-1.608 0.712,-1.571 0.675,-1.314 0.734,-1.284 0.791,-1.248 0.848,-1.211 0.559,-0.761 0.768,-1.011 0.794,-0.987 0.824,-0.963 0.853,-0.939 0.959,-1.024 0.869,-0.906 0.893,-0.883 0.914,-0.859 0.937,-0.838 1.033,-0.899 0.981,-0.821 1.013,-0.781 1.044,-0.739 1.073,-0.698 0.913,-0.566 1.2,-0.699 1.239,-0.623 1.275,-0.549 1.305,-0.47 0.498,-0.164 1.475,-0.42 1.504,-0.305 1.523,-0.187 1.533,-0.068 1.631,0.059 1.622,0.192 1.599,0.325 1.568,0.457 0.714,0.24 1.117,0.407 1.097,0.462 1.071,0.514 1.048,0.566 1.548,0.889 0.982,0.58 0.966,0.607 0.949,0.633 0.931,0.658 0.807,0.587 1.257,0.957 1.213,1.008 1.168,1.062 1.12,1.112 1.109,1.201 1.053,1.251 0.996,1.299 0.936,1.342 0.099,0.151 0.801,1.259 0.749,1.289 0.698,1.318 0.644,1.346 0.677,1.586 0.605,1.615 0.529,1.641 0.466,1.72 0.332,1.456 0.268,1.413 0.215,1.42 0.16,1.427 0.084,0.893 0.109,1.335 0.073,1.338 0.037,1.34 0.002,1.34 -0.018,1.576 -0.027,1.098 -0.057,1.098 -0.086,1.095 -0.113,1.092 -0.225,1.901 -0.164,1.153 -0.224,1.143 -0.283,1.131 -0.339,1.114 -0.362,1.092 -0.524,1.369 -0.644,1.317 -0.756,1.254 -0.89,1.214 -1.147,1.287 -1.244,1.132 -1.357,0.996 -1.453,0.848 -1.36,0.626 -1.414,0.495 -1.453,0.362 -1.48,0.226 -0.714,0.075 -1.327,0.094 -1.331,0.007 -1.328,-0.082 -1.319,-0.171 -1.824,-0.299 -0.938,-0.166 -0.934,-0.194 -0.928,-0.22 -0.922,-0.246 -2.029,-0.574 -1.169,-0.341 -1.165,-0.362 -1.156,-0.381 -1.15,-0.401 -2.275,-0.814 -0.754,-0.274 -0.752,-0.277 -0.752,-0.282 -0.748,-0.287 -3.192,-1.232 -0.671,-0.253 -0.676,-0.24 -0.68,-0.226 -0.684,-0.214 -2.48,-0.752 -1.164,-0.311 -1.184,-0.236 -1.195,-0.159 -1.205,-0.081 -1.557,-0.054 -1.177,0.022 -1.167,0.142 -1.145,0.265 -1.113,0.383 -0.849,0.343 -1.276,0.643 -1.151,0.846 -0.995,1.023 -0.813,1.175 -0.599,1.269 -0.384,1.351 -0.159,1.395 0.069,1.402 0.197,1.489 0.152,0.904 0.215,0.89 0.275,0.873 0.338,0.851 0.905,2.069 0.497,1.062 0.552,1.036 0.605,1.004 0.655,0.973 1.22,1.566 1.351,1.451 1.472,1.33 1.583,1.195 0.714,0.492 0.619,0.414 0.63,0.398 0.641,0.382 0.65,0.362 2.5,1.353 0.927,0.509 0.92,0.522 0.913,0.532 0.906,0.545 1.306,0.798 1.206,0.723 1.219,0.704 1.23,0.682 1.241,0.664 1.619,0.823 1.634,0.79 1.652,0.754 1.668,0.719 0.874,0.365 0.863,0.366 0.862,0.374 0.857,0.38 0.855,0.388 3.603,1.659 0.274,0.128 0.273,0.131 0.272,0.134 0.269,0.136 3.799,1.945 0.714,0.321 0.742,0.249 0.763,0.174 0.778,0.096 0.69,0.051 1.681,-0.09 1.604,-0.513 1.422,-0.9 1.15,-1.231 0.485,-0.786 0.372,-0.845 0.249,-0.889 0.125,-0.916 0.164,-2.567 0.099,-0.968 0.167,-0.958 0.239,-0.945 0.306,-0.923 0.255,-0.683 0.707,-1.528 0.929,-1.4 1.132,-1.244 1.31,-1.056 1.138,-0.686 1.213,-0.543 1.269,-0.393 1.308,-0.238 2.147,-0.256 0.724,-0.074 0.725,-0.046 0.729,-0.019 0.728,0.006 2.979,0.085 1.003,-0.011 0.999,-0.084 0.989,-0.157 0.976,-0.233 1.278,-0.355 1.331,-0.483 1.241,-0.679 1.121,-0.862 0.977,-1.022 0.857,-1.246 0.642,-1.368 0.411,-1.453 0.168,-1.504 0.035,-1.222 -0.005,-0.894 -0.068,-0.892 -0.13,-0.886 -0.192,-0.874 -0.418,-1.638 -0.324,-1.442 -0.236,-1.457 -0.151,-1.469 -0.063,-1.474 -0.005,-0.474 0.018,-1.435 0.088,-1.433 0.16,-1.427 0.232,-1.416 0.302,-1.599 0.167,-0.96 0.136,-0.964 0.106,-0.969 0.076,-0.97 0.033,-0.508 0.054,-1.962 -0.083,-1.96 -0.221,-1.95 -0.356,-1.93 -0.289,-1.177 -0.339,-1.163 -0.389,-1.148 -0.439,-1.132 -0.89,-2.154 -0.313,-0.787 -0.292,-0.795 -0.273,-0.802 -0.251,-0.808 -0.43,-1.453 -0.393,-1.535 -0.283,-1.558 -0.172,-1.574 -0.057,-1.582 0.058,-1.581 0.171,-1.575 0.283,-1.556 0.395,-1.532 0.071,-0.24 0.462,-1.403 0.551,-1.373 0.634,-1.334 0.716,-1.293 0.274,-0.46 0.778,-1.217 0.854,-1.163 0.926,-1.108 0.993,-1.046 0.537,-0.528 1.006,-0.918 1.073,-0.839 1.134,-0.754 1.189,-0.665 0.663,-0.338 1.288,-0.578 1.341,-0.446 1.379,-0.309 1.401,-0.17 0.532,-0.038 1.423,-0.015 1.413,0.155 1.386,0.322 1.337,0.485 0.486,0.209 1.227,0.635 1.13,0.798 1.01,0.944 0.869,1.076 0.167,0.238 0.748,1.275 0.535,1.379 0.304,1.447 0.067,1.477 -0.173,1.482 -0.41,1.434 -0.638,1.349 -0.849,1.225 -0.825,1.009 -0.656,0.741 -0.709,0.687 -0.762,0.633 -0.804,0.573 -2.537,1.663 -0.593,0.4 -0.583,0.416 -0.574,0.429 -0.561,0.445 -1.695,1.38 -1.031,0.919 -0.947,1.005 -0.854,1.086 -0.755,1.156 -0.8,1.543 -0.623,1.622 -0.44,1.683 -0.249,1.72 -0.148,1.663 -0.046,0.616 -0.03,0.618 -0.013,0.619 0.003,0.618 0.021,1.061 -0.01,2.064 -0.111,2.059 -0.209,2.051 -0.308,2.041 -0.309,1.752 -0.047,0.265 -0.05,0.262 -0.054,0.263 -0.056,0.261 -0.738,3.34 -0.19,1.178 -0.05,1.194 0.085,1.19 0.225,1.173 0.609,1.748 0.912,1.61 1.186,1.42 1.42,1.187 0.469,0.326 0.831,0.527 0.872,0.454 0.907,0.382 0.934,0.306 4.066,1.142 0.181,0.051 0.241,0.07 3.204,0.959 1.384,0.338 1.411,0.189 1.424,0.041 1.419,-0.108 1.682,-0.328 1.627,-0.536 1.548,-0.737 1.439,-0.926 1.339,-0.983 0.514,-0.392 0.5,-0.407 0.488,-0.423 0.473,-0.439 2.382,-2.279 0.655,-0.656 0.621,-0.69 0.589,-0.718 0.551,-0.746 0.756,-1.075 0.835,-1.347 0.669,-1.433 0.498,-1.504 0.32,-1.55 0.137,-1.574 -0.047,-1.579 -0.232,-1.563 -0.411,-1.526 -0.299,-0.897 -0.396,-1.07 -0.465,-1.041 -0.531,-1.01 -0.596,-0.971 -1.843,-2.799 -0.221,-0.341 -0.219,-0.343 -0.214,-0.345 -0.211,-0.347 -1.402,-2.336 -0.702,-1.271 -0.609,-1.317 -0.513,-1.358 -0.426,-1.437 -0.367,-1.707 -0.211,-1.685 -0.063,-1.696 0.082,-1.696 0.191,-1.479 0.306,-1.461 0.414,-1.433 0.523,-1.399 0.225,-0.543 0.585,-1.287 0.658,-1.25 0.734,-1.209 0.803,-1.161 0.427,-0.579 0.881,-1.135 0.937,-1.092 0.988,-1.044 1.037,-0.994 0.451,-0.413 1.109,-0.967 1.155,-0.913 1.194,-0.857 1.235,-0.801 0.477,-0.293 1.265,-0.73 1.304,-0.659 1.34,-0.586 1.368,-0.51 0.418,-0.142 1.456,-0.443 1.482,-0.347 1.502,-0.244 1.516,-0.148 0.254,-0.016 1.542,-0.041 1.538,0.071 1.531,0.183 1.514,0.293 0.585,0.136 1.293,0.355 1.263,0.452 1.224,0.549 1.178,0.642 1.029,0.612 1.021,0.685 0.944,0.788 0.858,0.881 0.759,0.968 0.665,0.946 0.656,1.108 0.474,1.197 0.281,1.258 0.078,1.286 -0.003,0.24 -0.175,1.491 -0.465,1.428 -0.736,1.31 -0.979,1.139 -1.011,0.813 -1.137,0.629 -1.225,0.426 -1.281,0.212 -2.076,0.163 -0.684,0.036 -0.682,0.002 -0.684,-0.033 -0.679,-0.067 -2.601,-0.326 -1.213,-0.108 -1.217,-0.015 -1.214,0.073 -1.207,0.163 -0.707,0.121 -1.488,0.345 -1.437,0.512 -1.371,0.673 -1.285,0.825 -1.209,0.99 -1.084,1.123 -0.947,1.242 -0.82,1.393 -0.627,1.383 -0.456,1.389 -0.308,1.431 -0.155,1.455 -0.056,1.054 -0.024,1.165 0.046,1.166 0.119,1.16 0.191,1.15 0.212,1.073 0.332,1.462 0.41,1.442 0.489,1.417 0.566,1.392 0.712,1.499 0.799,1.45 0.886,1.399 0.966,1.344 0.745,0.972 0.563,0.767 0.53,0.791 0.495,0.812 0.46,0.833 0.313,0.591 0.781,1.677 0.615,1.745 0.444,1.796 0.267,1.832 0.08,1.307 -0.007,1.31 -0.1,1.307 -0.188,1.296 -0.678,3.748 -0.515,2.961 -0.097,1.514 0.229,1.499 0.546,1.416 0.836,1.265 0.832,0.847 0.961,0.695 1.065,0.523 1.138,0.338 3.808,0.785 0.117,0.025 2.453,0.48 1.931,0.343 1.94,0.276 1.949,0.212 1.955,0.143 1.251,0.055 1.252,0.03 1.254,0.002 1.252,-0.026 2.42,-0.077 0.763,-0.035 0.761,-0.058 0.758,-0.082 0.756,-0.103 0.911,-0.139 1.881,-0.378 1.838,-0.55 1.778,-0.72 1.703,-0.881 1.055,-0.655 1.012,-0.714 0.969,-0.776 0.919,-0.832 1.748,-1.68 0.55,-0.539 0.537,-0.551 0.523,-0.563 0.511,-0.576 1.904,-2.193 0.624,-0.774 0.569,-0.817 0.507,-0.855 0.445,-0.889 0.391,-0.855 0.55,-1.485 0.328,-1.55 0.096,-1.581 -0.136,-1.579 -0.322,-1.396 -0.502,-1.341 -0.677,-1.262 -0.838,-1.163 -1.564,-1.891 -0.32,-0.376 -0.328,-0.367 -0.337,-0.358 -0.347,-0.35 -2.217,-2.18 -0.733,-0.827 -0.612,-0.916 -0.483,-0.992 -0.342,-1.048 -0.114,-0.447 -0.21,-1.473 0.101,-1.485 0.412,-1.431 0.701,-1.313 0.858,-1.036 1.038,-0.854 1.182,-0.642 1.281,-0.406 0.885,-0.19 1.193,-0.177 1.207,-0.022 1.199,0.135 1.171,0.288 1.901,0.601 0.911,0.317 0.892,0.368 0.87,0.42 0.843,0.468 1.523,0.903 1.163,0.722 1.129,0.773 1.096,0.818 1.062,0.864 0.17,0.145 1.277,1.143 1.221,1.204 1.16,1.263 1.095,1.319 0.165,0.208 0.83,1.091 0.789,1.12 0.749,1.149 0.707,1.175 0.689,1.199 0.56,1 0.531,1.015 0.506,1.028 0.478,1.042 1.036,2.34 0.341,0.724 0.374,0.704 0.409,0.687 0.441,0.668 1.428,2.049 0.684,0.849 0.795,0.747 0.89,0.63 0.968,0.501 0.368,0.158 1.454,0.45 1.517,0.124 1.508,-0.207 1.426,-0.526 1.087,-0.669 0.947,-0.858 0.776,-1.013 0.58,-1.139 0.625,-1.568 0.324,-0.923 0.243,-0.947 0.161,-0.966 0.079,-0.976 0.057,-1.571 0.004,-1.426 -0.096,-1.421 -0.193,-1.41 -0.291,-1.395 -0.213,-0.867 -0.341,-1.255 -0.4,-1.236 -0.459,-1.216 -0.518,-1.193 -0.81,-1.75 -0.378,-0.878 -0.333,-0.897 -0.283,-0.913 -0.233,-0.926 -0.338,-1.496 -0.225,-1.383 -0.058,-1.397 0.108,-1.395 0.274,-1.371 0.109,-0.412 0.463,-1.362 0.649,-1.284 0.822,-1.181 0.982,-1.054 1.22,-0.976 1.355,-0.78 1.459,-0.562 1.542,-0.338 1.455,-0.103 1.439,0.101 1.411,0.3 1.356,0.493 0.619,0.277 1.179,0.601 1.114,0.721 1.028,0.833 0.939,0.936 1.067,1.182 0.695,0.812 0.652,0.848 0.606,0.881 0.558,0.912 0.958,1.662 0.573,1.043 0.527,1.066 0.481,1.086 0.435,1.107 0.276,0.746 0.501,1.526 0.392,1.559 0.281,1.583 0.166,1.598 0.051,1.577 -0.057,1.575 -0.168,1.568 -0.277,1.553 -0.216,1 -0.256,1.089 -0.295,1.08 -0.337,1.067 -0.377,1.054 -1.101,2.905 -0.188,0.522 -0.172,0.527 -0.156,0.532 -0.139,0.536 -0.543,2.234 -0.237,1.396 -0.039,1.416 0.163,1.407 0.377,1.426 0.645,1.506 0.855,1.331 1.061,1.173 1.237,0.986 1.305,0.736 1.402,0.526 1.467,0.304 1.496,0.073 1.834,-0.052 0.725,-0.067 0.711,-0.162 0.682,-0.252 0.646,-0.339 0.439,-0.268 1.272,-1.116 0.824,-1.478 0.28,-1.669 -0.298,-1.665 -0.389,-0.827 -0.535,-0.743 -0.659,-0.632 -0.768,-0.499 -1.72,-0.909 -0.983,-0.626 -0.871,-0.777 -0.734,-0.908 -0.594,-1.043 -0.531,-1.586 -0.147,-1.635 0.234,-1.623 0.6,-1.528 0.689,-1.049 0.862,-0.913 1.009,-0.746 1.126,-0.556 1.958,-0.759 0.782,-0.276 0.798,-0.221 0.81,-0.171 0.819,-0.117 2.598,-0.288 1.069,-0.147 1.062,-0.202 1.048,-0.258 1.034,-0.312 1.189,-0.391 1.359,-0.526 1.299,-0.659 1.228,-0.788 1.144,-0.904 0.206,-0.182 1.092,-1.075 0.962,-1.193 0.818,-1.295 0.665,-1.38 0.516,-1.495 0.336,-1.547 0.151,-1.575 -0.036,-1.583 -0.018,-0.211 -0.2,-1.429 -0.357,-1.397 -0.51,-1.348 -0.659,-1.283 -0.448,-0.767 -0.693,-1.023 -0.82,-0.928 -0.933,-0.812 -1.03,-0.687 -1.005,-0.578 -1.124,-0.515 -1.201,-0.296 -1.233,-0.067 -1.226,0.163 -1.492,0.542 -1.321,0.879 -1.074,1.171 -0.763,1.392 -0.997,2.489 -0.091,0.219 -0.129,0.291 -1.304,2.74 -0.675,1.046 -0.921,0.839 -1.102,0.576 -1.214,0.276 -1.36,-0.064 -1.288,-0.441 -1.115,-0.781 -0.853,-1.062 -1.223,-2.065 -0.229,-0.41 -0.206,-0.423 -0.182,-0.433 -0.16,-0.443 -0.225,-0.689 -0.86,-2.084 -1.157,-1.935 -1.431,-1.743 -1.672,-1.514 -0.439,-0.34 -0.497,-0.373 -0.511,-0.354 -0.523,-0.336 -0.536,-0.316 -3.654,-2.07 -0.443,-0.245 -0.449,-0.235 -0.454,-0.226 -0.459,-0.215 -1.74,-0.797 -1.598,-0.628 -1.657,-0.442 -1.697,-0.255 -1.715,-0.063 -1.45,0.098 -1.435,0.235 -1.405,0.371 -1.365,0.5 -0.534,0.227 -1.313,0.617 -1.258,0.72 -1.199,0.818 -1.129,0.911 -1.258,1.208 -1.135,1.324 -1.003,1.426 -0.864,1.515 -0.723,1.422 -0.285,0.599 -0.251,0.615 -0.222,0.627 -0.188,0.636 -0.396,2.398 0.07,2.43 0.532,2.37 0.975,2.226 0.303,0.541 0.169,0.312 0.161,0.315 0.152,0.321 0.146,0.323 1.727,3.978 0.274,0.65 0.262,0.657 0.249,0.66 0.237,0.664 1.453,4.215 0.086,0.279 0.066,0.286 0.047,0.289 0.027,0.292 0.115,2.013 -0.231,1.284 -0.789,1.039 -1.174,0.568 -1.303,-0.027 -0.693,-0.284 -0.592,-0.459 -0.449,-0.598 -0.275,-0.697 -0.803,-3.28 -0.183,-0.633 -0.23,-0.62 z"
         inkscape:connector-curvature="0"
         style="stroke:#ff5053;stroke-width:1.42848003" />
    </g>
  </g>
</svg>
