<?xml version="1.0" encoding="UTF-8"?>
<svg width="800" height="800" version="1.1" viewBox="0 0 800.00001 800.00001" xmlns="http://www.w3.org/2000/svg">
 <g transform="translate(0 -252.36)" fill="#00b783" shape-rendering="auto">
  <path d="m163.12 525.38c-17.534 0-31.656 14.121-31.656 31.656v463.67c0 17.534 14.121 31.656 31.656 31.656h473.78c17.534 0 31.645-14.122 31.645-31.656v-463.67c0-17.534-14.11-31.656-31.645-31.656h-473.78zm21.55 23.974h430.67c15.939 0 28.764 12.836 28.764 28.775v421.48c0 15.939-12.825 28.775-28.764 28.775h-430.67c-15.939 0-28.775-12.836-28.775-28.775v-421.48c0-15.939 12.836-28.775 28.775-28.775z" color="#000000" color-rendering="auto" image-rendering="auto" solid-color="#000000" style="isolation:auto;mix-blend-mode:normal"/>
  <path d="m383.63 252.36c-92.756 0-167.42 74.668-167.42 167.42v106.17h22.957v-103.35c0-81.17 65.339-146.52 146.51-146.52h28.663c81.17 0 146.52 65.35 146.52 146.52v103.35h22.957v-106.17c0-92.756-74.679-167.42-167.43-167.42h-32.75z" color="#000000" color-rendering="auto" image-rendering="auto" solid-color="#000000" style="isolation:auto;mix-blend-mode:normal"/>
  <path d="m388.36 309.16c-65.932 0-119.01 53.075-119.01 119.01v97.781h16.325v-95.782c0-57.697 46.437-104.16 104.13-104.16h20.378c57.697 0 104.15 46.46 104.15 104.16v95.782h16.325v-97.781c0-65.932-53.086-119.01-119.02-119.01h-23.281z" color="#000000" color-rendering="auto" image-rendering="auto" solid-color="#000000" style="isolation:auto;mix-blend-mode:normal"/>
  <path d="m163.12 525.38c-17.534 0-31.656 14.121-31.656 31.656v463.67c0 17.534 14.121 31.656 31.656 31.656h473.78c17.534 0 31.645-14.122 31.645-31.656v-463.67c0-17.534-14.11-31.656-31.645-31.656h-473.78zm21.55 23.974h430.67c15.939 0 28.764 12.836 28.764 28.775v421.48c0 15.939-12.825 28.775-28.764 28.775h-430.67c-15.939 0-28.775-12.836-28.775-28.775v-421.48c0-15.939 12.836-28.775 28.775-28.775z" color="#000000" color-rendering="auto" image-rendering="auto" solid-color="#000000" style="isolation:auto;mix-blend-mode:normal"/>
  <rect x="265.73" y="678.16" width="268.54" height="19.57" ry="9.7848" color="#000000" color-rendering="auto" image-rendering="auto" solid-color="#000000" style="isolation:auto;mix-blend-mode:normal"/>
  <rect x="265.73" y="886.9" width="268.54" height="19.57" ry="9.7848" color="#000000" color-rendering="auto" image-rendering="auto" solid-color="#000000" style="isolation:auto;mix-blend-mode:normal"/>
  <rect x="265.73" y="780.36" width="268.54" height="19.57" ry="9.7848" color="#000000" color-rendering="auto" image-rendering="auto" solid-color="#000000" style="isolation:auto;mix-blend-mode:normal"/>
 </g>
</svg>
