<?xml version="1.0" encoding="UTF-8"?>
<svg viewBox="0 0 56.577595 443.08008" xmlns="http://www.w3.org/2000/svg">
 <g transform="matrix(.99783 -.065894 .065894 .99783 -20.187 138.18)">
  <path d="m31 17.375c-6.094 0-11 4.906-11 11v43c0 6.094 4.906 11 11 11h23c6.094 0 11-4.906 11-11v-43c0-6.094-4.906-11-11-11h-23zm10 15h3c3.3156 0 6 2.6532 6 5.9688v23.031c0 3.3156-2.6844 6-6 6h-3c-3.3156 0-6-2.6844-6-6v-23.031c0-3.3156 2.6844-5.9688 6-5.9688z" fill="#969696" opacity=".99" stroke="#646464"/>
  <path d="m64.419 56.649c-1.977 12.913-12.415 3.6967-13.776-1.4958-0.09833-4.4349-0.15242-18.905-0.15242-18.905l-0.85784-1.4638c-0.50085-0.85464-1.5041-1.8328-2.4107-2.3504-1.3412-0.76577-1.991-0.88552-4.7672-0.87859-3.4228 0.0085-4.6479 0.40968-6.1437 2.0117-1.8203 1.9496-1.9819 4.9057-1.9735 18.428-2.5809 11.201-11.7 5.3255-13.688-2.6671-0.11292-22.993-0.08622-23.521 1.2742-26.187 0.37384-0.7328 1.4186-1.9827 2.3216-2.7776 2.86-2.5175 3.2353-2.5703 18.26-2.5703 12.587 0 13.424 0.04045 15.289 0.73843 2.5938 0.97044 4.9157 3.2924 5.8862 5.8862 0.71864 1.9207 0.73843 9.6664 0.73843 32.232z" fill="#a5a5a5" opacity=".99"/>
  <path d="m43.156 20.75c-1.5334 0-2.75 1.2479-2.75 2.7812v1.4688c0 1.5334 1.2166 2.75 2.75 2.75l7.8362 0.06313c2.3909-0.05755 3.4951 0.94343 3.4138 2.9692v7.999c0 1.5334 1.2166 2.7812 2.75 2.7812h1.4688c1.5334 0 2.7812-1.2479 2.7812-2.7812v-13.829c0-2.291-1.7501-4.2965-4.549-4.2965l-13.701 0.09375z" fill="#e6e6e6" opacity=".99"/>
  <path d="m54.196 21.916h2.4107a1.4286 1.4286 0 0 1 1.4286 1.4286 1.4286 1.4286 0 0 1 -1.4286 1.4286h-2.4107a1.4286 1.4286 0 0 1 -1.4286 -1.4286 1.4286 1.4286 0 0 1 1.4286 -1.4286" fill="#fdfdfd" opacity=".99"/>
 </g>
 <g transform="matrix(.99808 .061879 -.061879 .99808 -13.529 59.677)">
  <path d="m31 17.375c-6.094 0-11 4.906-11 11v43c0 6.094 4.906 11 11 11h23c6.094 0 11-4.906 11-11v-43c0-6.094-4.906-11-11-11h-23zm10 15h3c3.3156 0 6 2.6532 6 5.9688v23.031c0 3.3156-2.6844 6-6 6h-3c-3.3156 0-6-2.6844-6-6v-23.031c0-3.3156 2.6844-5.9688 6-5.9688z" fill="#969696" opacity=".99" stroke="#646464"/>
  <path d="m64.419 56.649c-1.977 12.913-12.415 3.6967-13.776-1.4958-0.09833-4.4349-0.15242-18.905-0.15242-18.905l-0.85784-1.4638c-0.50085-0.85464-1.5041-1.8328-2.4107-2.3504-1.3412-0.76577-1.991-0.88552-4.7672-0.87859-3.4228 0.0085-4.6479 0.40968-6.1437 2.0117-1.8203 1.9496-1.9819 4.9057-1.9735 18.428-2.5809 11.201-11.7 5.3255-13.688-2.6671-0.11292-22.993-0.08622-23.521 1.2742-26.187 0.37384-0.7328 1.4186-1.9827 2.3216-2.7776 2.86-2.5175 3.2353-2.5703 18.26-2.5703 12.587 0 13.424 0.04045 15.289 0.73843 2.5938 0.97044 4.9157 3.2924 5.8862 5.8862 0.71864 1.9207 0.73843 9.6664 0.73843 32.232z" fill="#a5a5a5" opacity=".99"/>
  <path d="m43.156 20.75c-1.5334 0-2.75 1.2479-2.75 2.7812v1.4688c0 1.5334 1.2166 2.75 2.75 2.75l7.8362 0.06313c2.3909-0.05755 3.4951 0.94343 3.4138 2.9692v7.999c0 1.5334 1.2166 2.7812 2.75 2.7812h1.4688c1.5334 0 2.7812-1.2479 2.7812-2.7812v-13.829c0-2.291-1.7501-4.2965-4.549-4.2965l-13.701 0.09375z" fill="#e6e6e6" opacity=".99"/>
  <path d="m54.196 21.916h2.4107a1.4286 1.4286 0 0 1 1.4286 1.4286 1.4286 1.4286 0 0 1 -1.4286 1.4286h-2.4107a1.4286 1.4286 0 0 1 -1.4286 -1.4286 1.4286 1.4286 0 0 1 1.4286 -1.4286" fill="#fdfdfd" opacity=".99"/>
 </g>
 <g transform="translate(-53.335 99.008)">
  <path d="m77.5 17.362a7.5 7.5 0 0 1 7.5 7.5v50a7.5 7.5 0 0 1 -7.5 7.5 7.5 7.5 0 0 1 -7.5 -7.5v-50a7.5 7.5 0 0 1 7.5 -7.5" fill="#969696" opacity=".99" stroke="#646464"/>
  <path d="m70.648 24.033c0.57518-3.9768 4.1709-6.663 7.9796-5.9612 2.0229 0.37274 3.5272 1.3341 4.588 2.9323 1.2796 1.9278 1.2026-0.03115 1.1503 29.242-3.701 15.286-11.516 2.2667-13.589-2.3422-0.08539-9.3798-0.29208-14.423-0.1293-23.871z" fill="#a5a5a5" opacity=".99"/>
 </g>
 <g transform="matrix(.99783 -.065894 .065894 .99783 -19.522 210.4)">
  <path d="m31 17.375c-6.094 0-11 4.906-11 11v43c0 6.094 4.906 11 11 11h23c6.094 0 11-4.906 11-11v-43c0-6.094-4.906-11-11-11h-23zm10 15h3c3.3156 0 6 2.6532 6 5.9688v23.031c0 3.3156-2.6844 6-6 6h-3c-3.3156 0-6-2.6844-6-6v-23.031c0-3.3156 2.6844-5.9688 6-5.9688z" fill="#969696" opacity=".99" stroke="#646464"/>
  <path d="m64.419 56.649c-1.977 12.913-12.415 3.6967-13.776-1.4958-0.09833-4.4349-0.15242-18.905-0.15242-18.905l-0.85784-1.4638c-0.50085-0.85464-1.5041-1.8328-2.4107-2.3504-1.3412-0.76577-1.991-0.88552-4.7672-0.87859-3.4228 0.0085-4.6479 0.40968-6.1437 2.0117-1.8203 1.9496-1.9819 4.9057-1.9735 18.428-2.5809 11.201-11.7 5.3255-13.688-2.6671-0.11292-22.993-0.08622-23.521 1.2742-26.187 0.37384-0.7328 1.4186-1.9827 2.3216-2.7776 2.86-2.5175 3.2353-2.5703 18.26-2.5703 12.587 0 13.424 0.04045 15.289 0.73843 2.5938 0.97044 4.9157 3.2924 5.8862 5.8862 0.71864 1.9207 0.73843 9.6664 0.73843 32.232z" fill="#a5a5a5" opacity=".99"/>
  <path d="m43.156 20.75c-1.5334 0-2.75 1.2479-2.75 2.7812v1.4688c0 1.5334 1.2166 2.75 2.75 2.75l7.8362 0.06313c2.3909-0.05755 3.4951 0.94343 3.4138 2.9692v7.999c0 1.5334 1.2166 2.7812 2.75 2.7812h1.4688c1.5334 0 2.7812-1.2479 2.7812-2.7812v-13.829c0-2.291-1.7501-4.2965-4.549-4.2965l-13.701 0.09375z" fill="#e6e6e6" opacity=".99"/>
  <path d="m54.196 21.916h2.4107a1.4286 1.4286 0 0 1 1.4286 1.4286 1.4286 1.4286 0 0 1 -1.4286 1.4286h-2.4107a1.4286 1.4286 0 0 1 -1.4286 -1.4286 1.4286 1.4286 0 0 1 1.4286 -1.4286" fill="#fdfdfd" opacity=".99"/>
 </g>
 <g transform="matrix(-1 0 0 1 103.59 171.23)">
  <path d="m77.5 17.362a7.5 7.5 0 0 1 7.5 7.5v50a7.5 7.5 0 0 1 -7.5 7.5 7.5 7.5 0 0 1 -7.5 -7.5v-50a7.5 7.5 0 0 1 7.5 -7.5" fill="#969696" opacity=".99" stroke="#646464"/>
  <path d="m70.648 24.033c0.57518-3.9768 4.1709-6.663 7.9796-5.9612 2.0229 0.37274 3.5272 1.3341 4.588 2.9323 1.2796 1.9278 1.2026-0.03115 1.1503 29.242-3.701 15.286-11.516 2.2667-13.589-2.3422-0.08539-9.3798-0.29208-14.423-0.1293-23.871z" fill="#a5a5a5" opacity=".99"/>
 </g>
 <g transform="matrix(.99894 .04612 -.04612 .99894 -10.911 279.99)">
  <path d="m31 17.375c-6.094 0-11 4.906-11 11v43c0 6.094 4.906 11 11 11h23c6.094 0 11-4.906 11-11v-43c0-6.094-4.906-11-11-11h-23zm10 15h3c3.3156 0 6 2.6532 6 5.9688v23.031c0 3.3156-2.6844 6-6 6h-3c-3.3156 0-6-2.6844-6-6v-23.031c0-3.3156 2.6844-5.9688 6-5.9688z" fill="#969696" opacity=".99" stroke="#646464"/>
  <path d="m64.419 56.649c-1.977 12.913-12.415 3.6967-13.776-1.4958-0.09833-4.4349-0.15242-18.905-0.15242-18.905l-0.85784-1.4638c-0.50085-0.85464-1.5041-1.8328-2.4107-2.3504-1.3412-0.76577-1.991-0.88552-4.7672-0.87859-3.4228 0.0085-4.6479 0.40968-6.1437 2.0117-1.8203 1.9496-1.9819 4.9057-1.9735 18.428-2.5809 11.201-11.7 5.3255-13.688-2.6671-0.11292-22.993-0.08622-23.521 1.2742-26.187 0.37384-0.7328 1.4186-1.9827 2.3216-2.7776 2.86-2.5175 3.2353-2.5703 18.26-2.5703 12.587 0 13.424 0.04045 15.289 0.73843 2.5938 0.97044 4.9157 3.2924 5.8862 5.8862 0.71864 1.9207 0.73843 9.6664 0.73843 32.232z" fill="#a5a5a5" opacity=".99"/>
  <path d="m43.156 20.75c-1.5334 0-2.75 1.2479-2.75 2.7812v1.4688c0 1.5334 1.2166 2.75 2.75 2.75l7.8362 0.06313c2.3909-0.05755 3.4951 0.94343 3.4138 2.9692v7.999c0 1.5334 1.2166 2.7812 2.75 2.7812h1.4688c1.5334 0 2.7812-1.2479 2.7812-2.7812v-13.829c0-2.291-1.7501-4.2965-4.549-4.2965l-13.701 0.09375z" fill="#e6e6e6" opacity=".99"/>
  <path d="m54.196 21.916h2.4107a1.4286 1.4286 0 0 1 1.4286 1.4286 1.4286 1.4286 0 0 1 -1.4286 1.4286h-2.4107a1.4286 1.4286 0 0 1 -1.4286 -1.4286 1.4286 1.4286 0 0 1 1.4286 -1.4286" fill="#fdfdfd" opacity=".99"/>
 </g>
 <g transform="matrix(.99603 -.088977 .088977 .99603 -52.189 252.74)">
  <path d="m77.5 17.362a7.5 7.5 0 0 1 7.5 7.5v50a7.5 7.5 0 0 1 -7.5 7.5 7.5 7.5 0 0 1 -7.5 -7.5v-50a7.5 7.5 0 0 1 7.5 -7.5" fill="#969696" opacity=".99" stroke="#646464"/>
  <path d="m70.648 24.033c0.57518-3.9768 4.1709-6.663 7.9796-5.9612 2.0229 0.37274 3.5272 1.3341 4.588 2.9323 1.2796 1.9278 1.2026-0.03115 1.1503 29.242-3.701 15.286-11.516 2.2667-13.589-2.3422-0.08539-9.3798-0.29208-14.423-0.1293-23.871z" fill="#a5a5a5" opacity=".99"/>
 </g>
 <g transform="matrix(.99093 .13436 -.13436 .99093 -9.6265 353.59)">
  <path d="m31 17.375c-6.094 0-11 4.906-11 11v43c0 6.094 4.906 11 11 11h23c6.094 0 11-4.906 11-11v-43c0-6.094-4.906-11-11-11h-23zm10 15h3c3.3156 0 6 2.6532 6 5.9688v23.031c0 3.3156-2.6844 6-6 6h-3c-3.3156 0-6-2.6844-6-6v-23.031c0-3.3156 2.6844-5.9688 6-5.9688z" fill="#969696" opacity=".99" stroke="#646464"/>
  <path d="m64.419 56.649c-1.977 12.913-12.415 3.6967-13.776-1.4958-0.09833-4.4349-0.15242-18.905-0.15242-18.905l-0.85784-1.4638c-0.50085-0.85464-1.5041-1.8328-2.4107-2.3504-1.3412-0.76577-1.991-0.88552-4.7672-0.87859-3.4228 0.0085-4.6479 0.40968-6.1437 2.0117-1.8203 1.9496-1.9819 4.9057-1.9735 18.428-2.5809 11.201-11.7 5.3255-13.688-2.6671-0.11292-22.993-0.08622-23.521 1.2742-26.187 0.37384-0.7328 1.4186-1.9827 2.3216-2.7776 2.86-2.5175 3.2353-2.5703 18.26-2.5703 12.587 0 13.424 0.04045 15.289 0.73843 2.5938 0.97044 4.9157 3.2924 5.8862 5.8862 0.71864 1.9207 0.73843 9.6664 0.73843 32.232z" fill="#a5a5a5" opacity=".99"/>
  <path d="m43.156 20.75c-1.5334 0-2.75 1.2479-2.75 2.7812v1.4688c0 1.5334 1.2166 2.75 2.75 2.75l7.8362 0.06313c2.3909-0.05755 3.4951 0.94343 3.4138 2.9692v7.999c0 1.5334 1.2166 2.7812 2.75 2.7812h1.4688c1.5334 0 2.7812-1.2479 2.7812-2.7812v-13.829c0-2.291-1.7501-4.2965-4.549-4.2965l-13.701 0.09375z" fill="#e6e6e6" opacity=".99"/>
  <path d="m54.196 21.916h2.4107a1.4286 1.4286 0 0 1 1.4286 1.4286 1.4286 1.4286 0 0 1 -1.4286 1.4286h-2.4107a1.4286 1.4286 0 0 1 -1.4286 -1.4286 1.4286 1.4286 0 0 1 1.4286 -1.4286" fill="#fdfdfd" opacity=".99"/>
 </g>
 <g transform="matrix(1 -.00046 .00046 1 -48.331 322.79)">
  <path d="m77.5 17.362a7.5 7.5 0 0 1 7.5 7.5v50a7.5 7.5 0 0 1 -7.5 7.5 7.5 7.5 0 0 1 -7.5 -7.5v-50a7.5 7.5 0 0 1 7.5 -7.5" fill="#969696" opacity=".99" stroke="#646464"/>
  <path d="m70.648 24.033c0.57518-3.9768 4.1709-6.663 7.9796-5.9612 2.0229 0.37274 3.5272 1.3341 4.588 2.9323 1.2796 1.9278 1.2026-0.03115 1.1503 29.242-3.701 15.286-11.516 2.2667-13.589-2.3422-0.08539-9.3798-0.29208-14.423-0.1293-23.871z" fill="#a5a5a5" opacity=".99"/>
 </g>
 <g transform="matrix(.9941 .10842 -.10842 .9941 -5.529 -20.067)">
  <path d="m31 17.375c-6.094 0-11 4.906-11 11v43c0 6.094 4.906 11 11 11h23c6.094 0 11-4.906 11-11v-43c0-6.094-4.906-11-11-11h-23zm10 15h3c3.3156 0 6 2.6532 6 5.9688v23.031c0 3.3156-2.6844 6-6 6h-3c-3.3156 0-6-2.6844-6-6v-23.031c0-3.3156 2.6844-5.9688 6-5.9688z" fill="#969696" opacity=".99" stroke="#646464"/>
  <path d="m64.419 56.649c-1.977 12.913-12.415 3.6967-13.776-1.4958-0.09833-4.4349-0.15242-18.905-0.15242-18.905l-0.85784-1.4638c-0.50085-0.85464-1.5041-1.8328-2.4107-2.3504-1.3412-0.76577-1.991-0.88552-4.7672-0.87859-3.4228 0.0085-4.6479 0.40968-6.1437 2.0117-1.8203 1.9496-1.9819 4.9057-1.9735 18.428-2.5809 11.201-11.7 5.3255-13.688-2.6671-0.11292-22.993-0.08622-23.521 1.2742-26.187 0.37384-0.7328 1.4186-1.9827 2.3216-2.7776 2.86-2.5175 3.2353-2.5703 18.26-2.5703 12.587 0 13.424 0.04045 15.289 0.73843 2.5938 0.97044 4.9157 3.2924 5.8862 5.8862 0.71864 1.9207 0.73843 9.6664 0.73843 32.232z" fill="#a5a5a5" opacity=".99"/>
  <path d="m43.156 20.75c-1.5334 0-2.75 1.2479-2.75 2.7812v1.4688c0 1.5334 1.2166 2.75 2.75 2.75l7.8362 0.06313c2.3909-0.05755 3.4951 0.94343 3.4138 2.9692v7.999c0 1.5334 1.2166 2.7812 2.75 2.7812h1.4688c1.5334 0 2.7812-1.2479 2.7812-2.7812v-13.829c0-2.291-1.7501-4.2965-4.549-4.2965l-13.701 0.09375z" fill="#e6e6e6" opacity=".99"/>
  <path d="m54.196 21.916h2.4107a1.4286 1.4286 0 0 1 1.4286 1.4286 1.4286 1.4286 0 0 1 -1.4286 1.4286h-2.4107a1.4286 1.4286 0 0 1 -1.4286 -1.4286 1.4286 1.4286 0 0 1 1.4286 -1.4286" fill="#fdfdfd" opacity=".99"/>
 </g>
 <g transform="matrix(.99891 .046703 -.046703 .99891 -47.129 17.362)">
  <path d="m77.5 17.362a7.5 7.5 0 0 1 7.5 7.5v50a7.5 7.5 0 0 1 -7.5 7.5 7.5 7.5 0 0 1 -7.5 -7.5v-50a7.5 7.5 0 0 1 7.5 -7.5" fill="#969696" opacity=".99" stroke="#646464"/>
  <path d="m70.648 24.033c0.57518-3.9768 4.1709-6.663 7.9796-5.9612 2.0229 0.37274 3.5272 1.3341 4.588 2.9323 1.2796 1.9278 1.2026-0.03115 1.1503 29.242-3.701 15.286-11.516 2.2667-13.589-2.3422-0.08539-9.3798-0.29208-14.423-0.1293-23.871z" fill="#a5a5a5" opacity=".99"/>
 </g>
</svg>
