<?xml version="1.0" encoding="UTF-8" standalone="no"?>
<svg
   xmlns:dc="http://purl.org/dc/elements/1.1/"
   xmlns:cc="http://creativecommons.org/ns#"
   xmlns:rdf="http://www.w3.org/1999/02/22-rdf-syntax-ns#"
   xmlns:svg="http://www.w3.org/2000/svg"
   xmlns="http://www.w3.org/2000/svg"
   xmlns:sodipodi="http://sodipodi.sourceforge.net/DTD/sodipodi-0.dtd"
   xmlns:inkscape="http://www.inkscape.org/namespaces/inkscape"
   version="1.1"
   width="720px"
   height="1358px"
   viewBox="0 0 720 1358"
   id="svg13"
   sodipodi:docname="life-coach-4292178.svg"
   inkscape:version="0.92.5 (2060ec1f9f, 2020-04-08)">
  <metadata
     id="metadata19">
    <rdf:RDF>
      <cc:Work
         rdf:about="">
        <dc:format>image/svg+xml</dc:format>
        <dc:type
           rdf:resource="http://purl.org/dc/dcmitype/StillImage" />
      </cc:Work>
    </rdf:RDF>
  </metadata>
  <defs
     id="defs17" />
  <sodipodi:namedview
     pagecolor="#ffffff"
     bordercolor="#666666"
     borderopacity="1"
     objecttolerance="10"
     gridtolerance="10"
     guidetolerance="10"
     inkscape:pageopacity="0"
     inkscape:pageshadow="2"
     inkscape:window-width="1920"
     inkscape:window-height="1009"
     id="namedview15"
     showgrid="false"
     inkscape:zoom="0.17378498"
     inkscape:cx="360"
     inkscape:cy="679"
     inkscape:window-x="0"
     inkscape:window-y="0"
     inkscape:window-maximized="1"
     inkscape:current-layer="svg13" />
  <g
     id="layer1"
     style="fill:#ffffff;fill-opacity:1;stroke:#000000;stroke-opacity:1"
     inkscape:export-xdpi="150"
     inkscape:export-ydpi="150">
    <g
       style="fill:#ffffff;fill-opacity:1;stroke-linejoin:miter;stroke:#000000;stroke-opacity:1"
       id="g4">
      <path
         d="M578.71906,415.8676C582.21814,407.65198,581.94214,398.07886,577.9569,389.8378C576.7162,387.27103,575.6358,385.59277,573.3384,382.6794C572.09076,381.0743,569.2827,378.52,566.7594,376.67844C565.5857,375.82016,562.73303,374.20782,561.1169,373.48685C554.1227,370.38867,546.93353,369.6497,539.6007,371.2644C534.46893,372.3956,529.2423,375.0534,525.5431,378.41772C524.8356,379.05933,524.1542,379.68246,524.03076,379.79453C523.7974,379.99356,523.684,379.93393,465.3249,349.25143L406.84625,318.52185L406.1584,318.51422C405.34924,318.5233,404.41684,318.94995,403.80493,319.5937C403.48608,319.92474,402.6789,321.39877,400.92145,324.8028C398.56027,329.38556,398.4801,329.56863,398.48636,330.19928C398.49152,331.50537,399.04117,332.3574,400.38123,333.17432L401.3313,333.75427L397.0701,341.85913L392.80228,349.97626L397.52808,352.46304L402.25565,354.94644L404.17743,351.29114L406.09924,347.63593L408.7709,349.07257L411.42303,350.51538L410.2481,352.84183L409.06717,355.14917L412.40744,356.90518L415.74756,358.66144L419.32623,351.855L422.9048,345.0486L469.47775,369.56665L516.0442,394.09766L515.8008,395.41772C513.7076,406.22284,517.4783,417.47232,525.77216,425.25992C528.9538,428.23593,533.11725,430.84317,537.1431,432.39682C547.654,436.42645,559.3192,435.07855,568.23737,428.827C571.50085,426.53647,574.28125,423.57407,576.5519,419.9894C577.64435,418.27914,577.8564,417.87576,578.71906,415.8676 Z M564.22925,414.84598C559.7765,420.16318,552.9263,422.78815,545.9645,421.83093C535.8713,420.43365,528.06195,412.0,527.7157,402.13232C527.3845,393.0612,533.46515,385.07632,542.33746,382.9197C547.45264,381.66724,552.4657,382.29187,557.14856,384.73795C562.1778,387.38214,565.7798,391.60852,567.4316,396.8208C568.1615,399.1353,568.4168,400.66913,568.41315,402.72656C568.408,405.1534,568.123,406.95023,567.383,409.1837C566.92145,410.58194,565.18896,413.6934,564.22925,414.84598 Z"
         id="path2"
         style="fill:#ffffff;fill-opacity:1;stroke:#000000;stroke-opacity:1" />
    </g>
    <g
       id="g10"
       style="fill:#ffffff;fill-opacity:1;stroke:#000000;stroke-opacity:1">
      <g
         style="fill:#ffffff;fill-opacity:1;stroke-linejoin:miter;stroke:#000000;stroke-opacity:1"
         id="g8">
        <path
           d="M462.74814,340.70493C463.39066,341.28998,465.2591,341.96207,466.91797,342.05423C468.576,342.21854,470.51657,342.89145,471.15823,343.54883C471.87207,344.20694,472.94843,344.72498,473.52573,344.7319C474.1752,344.73975,475.25156,345.25793,476.03845,345.8449C476.7531,346.43085,477.97375,346.95087,478.69543,346.9595C479.41705,346.9682,480.99338,347.92538,482.1341,349.0938C484.05814,351.1379,484.19727,351.5726,484.12863,357.2735C484.06003,362.97433,482.58386,371.68967,481.09717,375.2804C480.6529,376.21323,479.69482,377.86185,478.88626,379.07898C477.1978,381.4405,476.8813,383.74612,478.09338,384.9878C478.9489,385.86407,478.54474,395.45834,477.58054,397.61182C477.06155,398.76044,478.13354,399.63934,482.72678,401.78772C483.5875,402.23117,484.51526,403.10846,484.7248,403.68835C485.14386,404.84808,480.76025,415.2605,477.96246,419.846C477.08002,421.20673,475.59598,424.58093,474.62396,427.38406C473.58066,430.11414,472.09573,433.56052,471.28543,434.92206C470.40298,436.2827,469.1432,439.01013,468.39722,441.0222C467.65216,442.96173,466.46365,445.76224,465.72552,447.1247C464.1006,450.20862,462.014,455.6687,461.9949,457.2563C461.97836,458.62744,457.91562,466.37323,454.5336,471.52908C450.41858,477.6142,446.06113,485.86182,445.00735,489.45782C444.48053,491.2557,443.80325,493.55716,443.35812,494.5622C442.61304,496.50204,435.8246,502.8437,426.35297,510.23578C417.97433,516.7749,408.48285,525.82666,408.46637,527.1979C408.45767,527.91943,408.7367,528.7168,409.02014,529.15314C409.37668,529.5183,410.2157,531.7658,410.83643,534.155C411.52942,536.54504,413.404,542.7024,415.07336,547.919C416.74365,553.0635,419.1051,560.7423,420.3537,564.94336C424.02805,577.47375,432.59058,603.63135,434.4817,608.4175C438.89685,619.369,452.3814,662.3302,452.48578,665.6515L452.59103,668.9005L449.6341,668.72064C447.97516,668.6285,444.45227,667.5034,441.7248,666.2438C436.98807,664.0215,436.4847,663.8711,429.40924,664.0746C422.26068,664.34937,421.89896,664.41736,417.75272,667.11C415.42438,668.6698,411.35455,671.00244,408.74103,672.27014L404.02094,674.66724L403.53925,678.70325C403.22028,681.22546,403.4715,684.3319,404.08804,687.082C404.70886,689.4711,405.7331,694.31915,406.48434,697.8646C407.2356,701.41016,408.2033,704.9584,408.5545,705.75653C408.97803,706.55554,409.5996,708.8726,409.9361,710.89746C411.0752,718.2008,411.61685,721.1664,412.18372,722.03925C412.46722,722.4757,413.0167,724.7919,413.35062,727.0332C413.7558,729.3478,414.3653,732.67505,414.63223,734.48267C416.39117,744.2472,417.32422,750.6819,417.90332,756.53503C418.29373,760.0762,418.87805,765.4963,419.27545,768.46014C420.80145,779.5934,421.37704,785.735,421.8363,795.5561C422.13013,801.11707,422.63718,806.96924,422.97888,808.5611C426.20374,822.4573,428.09924,832.8731,428.53143,838.9408C428.84448,842.9142,429.57397,848.2638,430.1922,850.8695C430.81042,853.4752,431.8338,858.39526,432.51465,861.79565C433.26672,865.26917,434.16403,868.6721,434.51526,869.4702C434.9396,870.19714,435.4839,872.94617,435.74216,875.47546C435.92734,878.0759,436.40384,880.4634,436.68726,880.8998C437.46808,881.9918,439.1774,889.8794,440.72342,899.3528C441.7268,905.9326,444.38748,918.73926,446.3151,926.4851C446.72897,928.0779,447.24985,932.7755,447.48807,936.96436C447.789,941.948,448.39066,945.9247,449.4419,948.53564C450.2818,950.71094,451.11038,953.82446,451.2356,955.4137C451.43298,957.0039,452.25204,960.91113,453.0085,964.0238C453.76407,967.2085,454.37354,970.53577,454.36227,971.4739C454.331,974.0718,455.53784,975.74634,464.37228,985.3075C470.92618,992.45935,473.1998,995.4458,475.24042,999.80066C476.64804,1002.77686,477.76013,1006.3268,477.74448,1007.6256C477.72104,1009.5741,477.2811,1010.1461,474.958,1011.27295C471.47418,1012.891,461.79733,1013.35205,455.82086,1012.1975C450.06165,1010.97327,439.8014,1005.942,439.17538,1003.98584C438.96844,1003.18945,437.47995,1000.93396,435.91666,998.89453C433.4292,995.68884,432.7849,995.24805,430.40353,995.21936C427.08398,995.17944,420.4024,992.64514,418.19043,990.5255C416.33505,988.771,416.28717,986.74963,417.59387,974.1349L418.56317,965.55786L416.08347,961.7029C414.73752,959.5936,413.18033,957.0488,412.68738,956.0325C412.19446,955.0161,410.14246,951.59924,408.08795,948.3988C402.6348,939.7445,402.4939,939.4541,397.58054,921.92883C397.09705,920.1188,395.70422,915.9159,394.5904,912.5104C393.40448,909.104,392.29678,905.19324,392.02454,903.8187C391.75247,902.4442,391.26636,900.85046,390.9856,900.1975C390.6317,899.61597,389.9379,897.29785,389.31448,895.12524C388.76318,892.95337,387.65814,888.82605,386.89728,886.07446C386.06516,883.24963,385.1714,879.558,384.83234,877.74963C384.49313,875.94116,383.5316,871.88794,382.77594,868.70325C382.02036,865.51843,381.34048,862.0458,381.35437,860.89124C381.36743,859.80884,381.08917,858.93945,380.72836,858.93506C380.36755,858.93066,379.9476,857.84314,379.7467,856.5415C379.2172,852.56555,377.17822,842.0759,376.21313,838.31116C372.3474,823.68567,370.96582,818.5447,370.40326,817.3109C369.20776,814.69824,365.58813,803.6121,365.11426,801.0082C364.84213,799.6336,364.4274,798.1129,364.14304,797.74866C363.85962,797.31226,363.02234,794.9204,362.33197,792.3138C361.6416,789.7074,359.69745,783.3327,358.0272,778.1881C356.28568,772.9706,354.7563,768.1167,354.54932,767.32025C354.2068,765.8004,352.6704,761.52374,350.0855,754.4196C349.2474,752.1,348.32922,750.42896,348.0362,750.78625C346.9407,751.85565,342.96588,764.2938,340.9175,772.5692C339.78036,777.10254,338.42062,782.1382,337.89636,783.7198C337.37213,785.3013,336.6209,787.7462,336.3158,789.1137C336.08282,790.48224,335.03857,793.2844,334.07526,795.36584C333.1128,797.3752,332.29037,799.7471,332.2808,800.54083C332.2704,801.40674,331.96704,802.63007,331.5254,803.34656C330.56732,804.99493,326.3463,819.88403,325.11615,826.1484C324.57803,828.8846,323.1966,835.72437,322.04724,841.26794C320.8979,846.81165,319.51123,854.08435,318.96527,857.47C317.56122,866.18616,315.55035,877.3489,314.70532,881.5969C313.8568,886.13367,311.05133,903.34924,310.41064,908.61035C310.1681,910.7727,309.24304,915.6693,308.47626,919.4131C307.70947,923.157,306.78442,928.0536,306.54187,930.21594C306.29935,932.37805,305.76288,934.97,305.3899,935.97595C305.0891,936.98267,304.17365,941.0856,303.40338,945.11804C302.63223,949.22266,301.79846,952.5326,301.582,952.5299C301.29333,952.5265,300.8369,954.4697,300.59265,956.77637C300.1162,960.3793,299.37372,962.10254,295.99265,967.18616C293.78683,970.5519,291.94543,973.63306,291.94107,973.9939C291.93674,974.3546,290.6935,975.7112,289.16248,976.9918L286.46378,979.34106L286.5994,986.0548C286.68378,991.0359,286.44125,993.1981,285.70657,994.272C284.23904,996.27515,278.42343,999.7417,275.96643,1000.0006C274.44925,1000.12683,273.86584,1000.625,273.70502,1001.9945C273.22516,1005.886,268.52325,1012.7582,266.43054,1012.73303C265.92538,1012.7269,265.4898,1012.9381,265.48547,1013.29895C265.47763,1013.9485,260.24976,1016.5559,256.84503,1017.59753C253.87502,1018.5,243.7714,1018.4507,239.88583,1017.4656C235.20828,1016.32666,234.85611,1015.6007,235.81158,1008.1782C236.52881,1002.5574,237.20172,1000.6167,240.97148,993.2283C245.33252,984.692,250.11685,976.95483,251.4984,976.10535C251.93486,975.822,252.27388,971.6399,252.34683,965.57825C252.42151,959.3722,252.75629,955.551,253.18918,955.5563C253.55,955.56055,253.91866,954.9155,253.92819,954.1217C253.94905,952.3898,255.35141,949.80835,256.8086,948.67114C257.75537,947.9607,257.771,946.66187,257.20145,940.015C256.4345,931.7781,256.438,931.4895,259.84256,918.4669C260.52066,916.09326,261.20316,913.359,261.43182,912.3513C261.5883,911.3428,261.96478,910.0481,262.1882,909.4735C262.41162,908.8988,262.77325,902.84045,262.92618,896.13025C263.1808,886.9673,263.6763,881.77673,264.97778,875.58545C265.8985,871.0497,266.9139,864.6383,267.09818,861.32056C267.35376,858.0758,267.8189,855.4109,268.17975,855.4153C268.54056,855.41956,268.83875,854.6293,268.8509,853.619C268.8622,852.6809,269.61423,850.1638,270.5054,848.08167C271.5443,845.7123,272.385,841.8251,272.72232,837.78735C273.64032,827.47766,274.97217,818.76056,275.85724,817.1835C276.37457,816.1793,276.5779,811.2739,276.39786,802.25C276.18994,789.545,277.00092,776.1304,278.60486,762.7976C279.0039,759.6267,279.56638,754.87,279.8863,752.27563L280.37747,747.4458L275.1087,747.45465C272.15,747.41907,267.82275,747.1504,265.37274,746.8323C261.55414,746.28107,260.9081,745.9846,260.27863,744.31696C259.36743,742.06866,256.4009,736.692,255.7575,736.1792C255.5436,735.95996,255.12195,735.0166,254.9176,734.0038C254.71329,732.99084,254.16115,730.89124,253.74736,729.29846C252.98996,726.25806,250.50497,710.855,249.92755,704.8578C249.73369,702.9789,249.31895,701.45825,248.95805,701.454C248.59734,701.4496,248.33377,699.3534,248.3642,696.82764C248.39459,694.302,247.94687,689.5331,247.26517,686.20483C245.84262,678.4653,245.9718,643.75134,247.38028,640.6647C248.12093,639.0858,248.06006,638.1467,247.22449,635.6107C245.62036,630.9722,245.70808,623.68384,247.40517,620.6008C248.4389,618.6644,248.90579,615.8554,249.42471,608.71643C249.776,603.5241,250.26535,598.8388,250.48885,598.264C250.78448,597.6902,251.55298,593.802,252.17969,589.6958C253.27342,582.78,253.28384,581.9142,252.24136,578.58167C250.99023,574.59717,251.25104,570.91943,253.17413,567.04517C254.0635,565.1072,254.46255,561.9363,254.77719,553.78455C254.99194,547.9409,255.49695,541.9566,255.94641,540.59076C256.39594,539.2249,256.78455,536.92,256.80106,535.5489C256.8636,530.35315,257.00882,530.2828,270.80313,523.5201C277.99078,519.9979,284.3767,517.1156,284.95407,517.12256C285.53137,517.1295,288.28745,516.0079,291.0462,514.66986C293.87704,513.33264,296.41666,512.2084,296.7774,512.2127C298.7981,512.23706,306.23938,505.61456,306.26114,503.8103C306.26636,503.37732,306.56018,502.94794,306.92276,502.80792C307.72003,502.52887,315.04407,493.66745,315.05188,493.01788C315.05447,492.8014,314.0815,489.68622,312.97034,486.06418C311.78613,482.5134,310.8897,479.03827,310.89667,478.46103C310.90448,477.81165,309.98462,476.28485,308.84558,474.97202C303.7177,469.28073,301.48047,457.27307,305.1807,455.6576C306.70392,455.02628,306.8543,454.52283,306.92294,448.82202C306.9638,445.43036,306.51422,440.8058,305.96393,438.56183C305.06927,434.94232,305.08057,434.0042,306.0621,430.40735C306.66626,428.1773,307.20093,425.72974,307.21045,424.93607C307.23132,423.20404,308.84064,421.41916,310.50043,421.43915C311.0777,421.4461,311.80457,421.0218,312.02798,420.44702C312.25143,419.8723,313.7025,419.2403,315.29358,418.97067C316.88464,418.7011,318.69916,417.85696,319.35992,416.92657C320.97095,414.9973,329.22363,412.9314,335.57578,412.86346C339.40207,412.76526,340.9854,413.1451,344.50055,414.91965C350.09534,417.80176,354.59735,421.53683,355.14685,423.85297C355.42334,424.8667,356.1963,426.6082,356.97705,427.70016C358.32394,429.73724,359.70197,441.15723,359.596,449.96124C359.55347,453.49725,359.75787,454.51013,360.6239,454.52057C361.2011,454.5275,362.13052,455.26038,362.6974,456.13336C363.54602,457.5869,363.60513,458.6703,362.67926,463.63916C361.90112,468.32104,361.15607,470.26077,359.0286,473.12207C357.0463,475.91296,356.30124,477.8528,355.90314,480.95148C355.5866,483.25714,355.05115,485.77682,354.60852,486.5653C353.86865,488.0722,355.47186,486.79224,365.1069,477.8144C371.23724,472.18652,373.04822,471.63083,376.9886,474.0601C378.1345,474.7956,380.64633,475.98062,382.51385,476.7248C384.4536,477.46985,386.8872,479.15915,388.16788,480.6902C389.94763,482.73248,390.9509,483.3219,392.32468,483.12195C395.43198,482.79846,396.59882,481.8022,398.15503,478.4287C398.97052,476.63416,400.3634,474.84662,401.3059,474.4971C402.2492,474.07538,404.94794,471.7262,407.3606,469.15695C409.7732,466.58765,413.20917,462.94815,415.03577,461.0937C416.8625,459.2391,419.20383,456.59686,420.15848,455.23712C421.1131,453.8773,423.31012,451.2334,425.06467,449.37787C426.81915,447.52258,428.2154,445.44623,428.22495,444.6525C428.23364,443.9309,428.5327,443.06836,428.82578,442.71103C429.19174,442.28232,430.37503,439.91492,431.48877,437.3301C432.60248,434.74518,434.81256,431.01874,436.27924,429.0877C437.819,427.0854,439.29352,424.50476,439.5961,423.35376C439.8995,422.13043,441.82788,417.82318,443.8988,413.6621C448.92578,403.76257,448.63098,404.26425,449.31436,401.45776C449.99774,398.65125,453.26755,390.82364,454.43954,389.3943C455.32028,388.17792,459.34735,377.40036,459.88553,374.66428C460.2663,373.00882,459.6281,372.06284,455.34955,367.7532C452.56735,365.04926,450.14856,362.13315,449.8712,361.19153C449.03653,358.58322,453.06534,347.66138,455.02243,346.9633C455.60318,346.6816,456.12054,345.6773,456.13354,344.5948C456.1605,342.35782,458.5766,339.5,460.38068,339.52173C461.1023,339.5304,462.1787,340.04855,462.74814,340.70493 Z M285.93628,639.3966C285.47452,641.7727,285.0756,644.9436,285.05734,646.45905C285.03912,647.9745,284.73566,649.19775,284.37488,649.19336C284.014,649.1891,283.5584,651.06006,283.31503,653.29456C282.32922,663.2427,281.2373,670.01385,280.3522,671.59106C278.87595,674.3159,277.7728,688.01556,277.5461,706.85016C277.3637,722.0044,277.46982,725.1813,278.58188,728.7312C279.27573,731.04913,279.97644,732.7898,280.12256,732.6471C281.0711,731.7925,282.76453,717.0173,282.85748,709.2958C282.91565,704.46094,283.25305,700.4232,283.5417,700.4267C283.90247,700.431,284.5824,697.9132,285.12488,694.8163C285.66647,691.7915,286.59848,686.3175,287.21832,682.7883C290.86276,661.8297,291.03485,659.5222,289.74353,646.8762C289.02704,640.4442,288.46277,633.3644,288.4167,631.1986C288.347,624.99097,288.06268,624.6266,287.41934,630.1041C287.09775,632.8427,286.39694,637.0927,285.93628,639.3966 Z M268.29907,731.5666C268.62427,734.52966,270.53363,737.8004,271.4109,736.87274C272.28638,736.08936,269.49017,728.54956,268.26517,728.3905C268.12085,728.3888,268.1756,729.8329,268.29907,731.5666 Z"
           id="path6"
           style="fill:#ffffff;fill-opacity:1;stroke:#000000;stroke-opacity:1" />
      </g>
    </g>
  </g>
</svg>
